<svg width="14" height="10" viewBox="0 0 14 10" fill="none" xmlns="http://www.w3.org/2000/svg">
<path d="M7.58953 9.20005C3.0796 9.20005 0.507207 6.0469 0.400024 0.800049H2.65911C2.73332 4.6511 4.39878 6.28233 5.71795 6.61867V0.800049H7.84512V4.12137C9.14781 3.97843 10.5165 2.46491 10.9782 0.800049H13.1053C12.9314 1.6635 12.5845 2.48104 12.0866 3.20155C11.5886 3.92206 10.9503 4.53003 10.2114 4.98744C11.0361 5.40538 11.7646 5.99695 12.3487 6.7231C12.9328 7.44924 13.3593 8.29347 13.6 9.20005H11.2585C11.0424 8.41261 10.6033 7.70773 9.99606 7.17374C9.38886 6.63976 8.64062 6.30041 7.84512 6.19825V9.20005H7.58953V9.20005Z" fill="white"/>
</svg>
