<svg width="30" height="30" viewBox="0 0 30 30" fill="none" xmlns="http://www.w3.org/2000/svg">
<rect width="30" height="30" rx="10" fill="black"/>
<g clip-path="url(#clip0_130_2358)">
<path d="M23.0009 14.5285C23.0009 14.8415 23.0009 15.1546 23.0009 15.4676C22.993 15.5224 22.9813 15.5772 22.9735 15.6319C22.9226 15.9763 22.8952 16.3245 22.8208 16.665C22.402 18.5862 21.4157 20.1592 19.8502 21.3448C17.905 22.82 15.7093 23.3091 13.3218 22.8083C11.4079 22.4091 9.8541 21.4074 8.66427 19.8618C7.3766 18.191 6.8404 16.2893 7.04392 14.1959C7.2083 12.5016 7.86584 11.0029 8.99695 9.7234C10.2337 8.32649 11.7758 7.4539 13.6193 7.12521C13.9206 7.07043 14.2259 7.04304 14.5273 7C14.8404 7 15.1535 7 15.4666 7C15.5058 7.00783 15.5449 7.02348 15.588 7.02739C16.8404 7.11739 18.0107 7.47347 19.0791 8.12693C21.1496 9.39863 22.4255 11.226 22.8756 13.6207C22.9304 13.922 22.9578 14.2272 23.0009 14.5285ZM15.0048 8.2404C11.2827 8.23258 8.25331 11.2534 8.24157 14.9863C8.22983 18.7036 11.2514 21.7322 14.9852 21.7518C18.7073 21.7674 21.7523 18.7271 21.7562 14.998C21.7562 11.2729 18.7347 8.24823 15.0048 8.2404Z" fill="white"/>
<path d="M14.379 13.1707C14.379 12.572 14.3751 11.9733 14.379 11.3747C14.3829 10.9012 14.7939 10.596 15.2127 10.7525C15.4749 10.8464 15.6197 11.0773 15.6197 11.406C15.6197 12.4507 15.6236 13.4994 15.6158 14.5441C15.6158 14.6811 15.651 14.7672 15.7685 14.8533C16.4573 15.358 17.1383 15.8745 17.8193 16.3871C18.1285 16.6219 18.1872 16.9976 17.9681 17.2793C17.7528 17.5571 17.3849 17.6001 17.0796 17.3771C16.5082 16.9545 15.9368 16.5241 15.3653 16.0937C15.1422 15.9254 14.9191 15.7532 14.6882 15.5889C14.469 15.4324 14.3712 15.2289 14.3751 14.9628C14.379 14.3681 14.379 13.7694 14.379 13.1707Z" fill="white"/>
</g>
<defs>
<clipPath id="clip0_130_2358">
<rect width="16" height="16" fill="white" transform="translate(7 7)"/>
</clipPath>
</defs>
</svg>
