<svg width="16" height="16" viewBox="0 0 16 16" fill="none" xmlns="http://www.w3.org/2000/svg">
<path fill-rule="evenodd" clip-rule="evenodd" d="M1.01158 7.51927C4.96294 5.89367 7.59782 4.82167 8.91622 4.30391C12.6807 2.82551 13.4628 2.56823 13.9722 2.55991C14.0842 2.55799 14.3351 2.58423 14.497 2.70903C14.6346 2.81399 14.6724 2.95607 14.6903 3.05527C14.7089 3.15511 14.7313 3.38167 14.7133 3.55959C14.5092 5.58327 13.6266 10.4953 13.1773 12.7621C12.9879 13.7209 12.6135 14.0421 12.2513 14.0741C11.4641 14.1426 10.8663 13.5833 10.1041 13.1109C8.9111 12.3724 8.23718 11.9129 7.07942 11.1922C5.74118 10.3596 6.60838 9.90199 7.37126 9.15383C7.57094 8.95799 11.0385 5.97943 11.1057 5.70871C11.114 5.67479 11.1223 5.54871 11.0429 5.48215C10.9636 5.41559 10.8465 5.43863 10.762 5.45655C10.6423 5.48215 8.73702 6.67191 5.04486 9.02519C4.50406 9.37591 4.01446 9.54679 3.57478 9.53783C3.09094 9.52823 2.16038 9.27991 1.4679 9.06743C0.619262 8.80695 -0.0552978 8.66871 0.00358216 8.22647C0.0336622 7.99607 0.370302 7.75991 1.01158 7.51927Z" fill="black"/>
</svg>
