<svg width="16" height="16" viewBox="0 0 16 16" fill="none" xmlns="http://www.w3.org/2000/svg">
<path d="M8.71488 12.8C3.248 12.8 0.12992 9.19681 0 3.20001H2.73856C2.82816 7.60129 4.84672 9.46561 6.44608 9.84961V3.20001H9.024V6.99521C10.6029 6.83265 12.2618 5.10273 12.8211 3.20001H15.4003C15.1871 4.19176 14.7661 5.12708 14.1651 5.94433C13.5554 6.77356 12.7816 7.46849 11.8918 7.98593C12.8848 8.45833 13.7674 9.13404 14.4826 9.96929C15.1871 10.7921 15.7048 11.7578 16 12.8H13.1616C12.8947 11.8926 12.3619 11.086 11.632 10.4845C10.8875 9.87053 9.98224 9.48353 9.024 9.36961V12.8H8.7136H8.71488Z" fill="black"/>
</svg>
