<svg width="30" height="30" viewBox="0 0 30 30" fill="none" xmlns="http://www.w3.org/2000/svg">
<rect width="30" height="30" rx="10" fill="#6FD399"/>
<g clip-path="url(#clip0_1_1292)">
<path d="M10.6279 19.1C9.6748 18.0781 9.14043 16.8563 9.01855 15.4375C9.69043 15.4375 10.3561 15.4375 10.9936 15.4375C11.0873 15.9281 11.1654 16.4156 11.2779 16.8969C11.3904 17.375 11.5811 17.8281 11.8029 18.2594C11.4092 18.5375 11.0248 18.8156 10.6279 19.1Z" fill="black"/>
<path d="M20.9561 15.4406C20.8342 16.8563 20.2967 18.0781 19.3498 19.1031C18.9561 18.8188 18.5686 18.5438 18.1748 18.2594C18.6186 17.3875 18.8779 16.4438 18.9436 15.4406C19.6092 15.4406 20.2748 15.4406 20.9561 15.4406Z" fill="black"/>
<path d="M11.0245 14.5813C10.3557 14.5813 9.69322 14.5813 9.03385 14.5813C8.9526 13.6094 9.78072 11.7188 10.6338 10.9219C11.0182 11.2 11.4026 11.475 11.7932 11.7594C11.3432 12.6344 11.087 13.5781 11.0245 14.5813Z" fill="black"/>
<path d="M19.34 10.925C20.1369 11.6031 20.94 13.4125 20.9494 14.5844C20.2869 14.5844 19.6275 14.5844 18.9525 14.5844C18.8869 13.5875 18.6338 12.6406 18.1807 11.7625C18.5682 11.4813 18.9525 11.2031 19.34 10.925Z" fill="black"/>
<path d="M14.6057 14.5844C13.6775 14.5844 12.7557 14.5844 11.8213 14.5844C11.8775 13.7031 12.1119 12.8813 12.5119 12.1094C12.8588 12.2125 13.1963 12.3312 13.5432 12.4125C13.89 12.4937 14.2463 12.5313 14.6088 12.5906C14.6057 13.2406 14.6057 13.9062 14.6057 14.5844Z" fill="black"/>
<path d="M15.3652 14.5813C15.3652 13.9063 15.3652 13.2406 15.3652 12.5656C16.084 12.5219 16.7746 12.3656 17.4371 12.0938C17.7527 12.4969 18.1777 14.0094 18.1402 14.5813C17.2184 14.5813 16.2965 14.5813 15.3652 14.5813Z" fill="black"/>
<path d="M12.5377 17.9281C12.2002 17.4125 11.8064 16.0063 11.8377 15.4375C12.7564 15.4375 13.6752 15.4375 14.6033 15.4375C14.6033 16.1062 14.6033 16.7781 14.6033 17.4594C13.8939 17.5094 13.2033 17.6563 12.5377 17.9281Z" fill="black"/>
<path d="M18.1463 15.4406C18.0807 16.3219 17.8525 17.1469 17.4463 17.9313C16.7744 17.6594 16.0869 17.5063 15.3682 17.4625C15.3682 16.7875 15.3682 16.1188 15.3682 15.4406C16.2869 15.4406 17.2088 15.4406 18.1463 15.4406Z" fill="black"/>
<path d="M15.3652 20.2781C15.3652 19.6 15.3652 18.9437 15.3652 18.275C15.9371 18.3094 16.484 18.425 17.0246 18.6344C16.5746 19.2875 16.0309 19.8281 15.3652 20.2781Z" fill="black"/>
<path d="M14.6061 20.2719C14.0311 19.9125 13.2623 19.1531 12.9561 18.6344C13.4873 18.4281 14.0342 18.3125 14.6061 18.275C14.6061 18.9406 14.6061 19.6 14.6061 20.2719Z" fill="black"/>
<path d="M15.3682 11.7406C15.3682 11.0719 15.3682 10.4187 15.3682 9.74374C16.0275 10.1906 16.5744 10.7281 17.0275 11.3781C16.4869 11.5875 15.94 11.7062 15.3682 11.7406Z" fill="black"/>
<path d="M14.6064 11.7406C14.0346 11.7062 13.4908 11.5875 12.9502 11.3781C13.4002 10.7281 13.9502 10.1937 14.6064 9.74374C14.6064 10.4156 14.6064 11.0719 14.6064 11.7406Z" fill="black"/>
<path d="M17.7627 18.9625C18.0939 19.2 18.4127 19.425 18.7471 19.6625C17.8814 20.3562 16.9252 20.7687 15.8564 20.9219C16.6064 20.3969 17.2377 19.7531 17.7627 18.9625Z" fill="black"/>
<path d="M11.2246 19.6625C11.5621 19.4219 11.8809 19.1969 12.2121 18.9625C12.734 19.75 13.3652 20.3937 14.1184 20.9187C13.0496 20.7687 12.0965 20.3562 11.2246 19.6625Z" fill="black"/>
<path d="M11.2246 10.3594C12.0965 9.66563 13.0496 9.25001 14.1184 9.10001C13.3684 9.62813 12.7309 10.2688 12.2059 11.0563C11.8809 10.825 11.5621 10.5969 11.2246 10.3594Z" fill="black"/>
<path d="M15.8594 9.10001C16.9281 9.25001 17.8781 9.66251 18.7469 10.3563C18.4156 10.5938 18.0969 10.8219 17.7688 11.0563C17.2438 10.2688 16.6094 9.63126 15.8594 9.10001Z" fill="black"/>
</g>
<defs>
<clipPath id="clip0_1_1292">
<rect width="12" height="12" fill="white" transform="translate(9 9)"/>
</clipPath>
</defs>
</svg>
