<svg width="30" height="30" viewBox="0 0 30 30" fill="none" xmlns="http://www.w3.org/2000/svg">
<rect width="30" height="30" rx="10" fill="black"/>
<g clip-path="url(#clip0_130_2378)">
<path d="M10.6289 19.1C9.67578 18.0781 9.14141 16.8563 9.01953 15.4375C9.69141 15.4375 10.357 15.4375 10.9945 15.4375C11.0883 15.9281 11.1664 16.4156 11.2789 16.8969C11.3914 17.375 11.582 17.8281 11.8039 18.2594C11.4102 18.5375 11.0258 18.8156 10.6289 19.1Z" fill="white"/>
<path d="M20.957 15.4406C20.8352 16.8562 20.2977 18.0781 19.3508 19.1031C18.957 18.8187 18.5695 18.5437 18.1758 18.2594C18.6195 17.3875 18.8789 16.4437 18.9445 15.4406C19.6102 15.4406 20.2758 15.4406 20.957 15.4406Z" fill="white"/>
<path d="M11.0254 14.5813C10.3567 14.5813 9.6942 14.5813 9.03482 14.5813C8.95357 13.6094 9.7817 11.7188 10.6348 10.9219C11.0192 11.2 11.4036 11.475 11.7942 11.7594C11.3442 12.6344 11.0879 13.5781 11.0254 14.5813Z" fill="white"/>
<path d="M19.341 10.925C20.1379 11.6031 20.941 13.4125 20.9504 14.5844C20.2879 14.5844 19.6285 14.5844 18.9535 14.5844C18.8879 13.5875 18.6348 12.6406 18.1816 11.7625C18.5691 11.4812 18.9535 11.2031 19.341 10.925Z" fill="white"/>
<path d="M14.6066 14.5844C13.6785 14.5844 12.7566 14.5844 11.8223 14.5844C11.8785 13.7031 12.1129 12.8813 12.5129 12.1094C12.8598 12.2125 13.1973 12.3312 13.5441 12.4125C13.891 12.4937 14.2473 12.5313 14.6098 12.5906C14.6066 13.2406 14.6066 13.9062 14.6066 14.5844Z" fill="white"/>
<path d="M15.3672 14.5813C15.3672 13.9063 15.3672 13.2406 15.3672 12.5656C16.0859 12.5219 16.7766 12.3656 17.4391 12.0938C17.7547 12.4969 18.1797 14.0094 18.1422 14.5813C17.2203 14.5813 16.2984 14.5813 15.3672 14.5813Z" fill="white"/>
<path d="M12.5377 17.9281C12.2002 17.4125 11.8064 16.0063 11.8377 15.4375C12.7564 15.4375 13.6752 15.4375 14.6033 15.4375C14.6033 16.1062 14.6033 16.7781 14.6033 17.4594C13.8939 17.5094 13.2033 17.6563 12.5377 17.9281Z" fill="white"/>
<path d="M18.1473 15.4406C18.0816 16.3219 17.8535 17.1469 17.4473 17.9312C16.7754 17.6594 16.0879 17.5062 15.3691 17.4625C15.3691 16.7875 15.3691 16.1187 15.3691 15.4406C16.2879 15.4406 17.2098 15.4406 18.1473 15.4406Z" fill="white"/>
<path d="M15.3672 20.2781C15.3672 19.6 15.3672 18.9437 15.3672 18.275C15.9391 18.3093 16.4859 18.425 17.0266 18.6343C16.5766 19.2875 16.0328 19.8281 15.3672 20.2781Z" fill="white"/>
<path d="M14.607 20.2718C14.032 19.9125 13.2633 19.1531 12.957 18.6343C13.4883 18.4281 14.0352 18.3125 14.607 18.275C14.607 18.9406 14.607 19.6 14.607 20.2718Z" fill="white"/>
<path d="M15.3691 11.7406C15.3691 11.0718 15.3691 10.4187 15.3691 9.74371C16.0285 10.1906 16.5754 10.7281 17.0285 11.3781C16.4879 11.5875 15.941 11.7062 15.3691 11.7406Z" fill="white"/>
<path d="M14.6074 11.7406C14.0355 11.7062 13.4918 11.5875 12.9512 11.3781C13.4012 10.7281 13.9512 10.1937 14.6074 9.74371C14.6074 10.4156 14.6074 11.0718 14.6074 11.7406Z" fill="white"/>
<path d="M17.7637 18.9625C18.0949 19.2 18.4137 19.425 18.748 19.6625C17.8824 20.3562 16.9262 20.7687 15.8574 20.9218C16.6074 20.3968 17.2387 19.7531 17.7637 18.9625Z" fill="white"/>
<path d="M11.2266 19.6625C11.5641 19.4218 11.8828 19.1968 12.2141 18.9625C12.7359 19.75 13.3672 20.3937 14.1203 20.9187C13.0516 20.7687 12.0984 20.3562 11.2266 19.6625Z" fill="white"/>
<path d="M11.2266 10.3594C12.0984 9.6656 13.0516 9.24998 14.1203 9.09998C13.3703 9.6281 12.7328 10.2687 12.2078 11.0562C11.8828 10.825 11.5641 10.5969 11.2266 10.3594Z" fill="white"/>
<path d="M15.8594 9.09998C16.9281 9.24998 17.8781 9.66248 18.7469 10.3562C18.4156 10.5937 18.0969 10.8219 17.7688 11.0562C17.2438 10.2687 16.6094 9.63123 15.8594 9.09998Z" fill="white"/>
</g>
<defs>
<clipPath id="clip0_130_2378">
<rect width="12" height="12" fill="white" transform="translate(9 9)"/>
</clipPath>
</defs>
</svg>
