<svg width="202" height="51" viewBox="0 0 202 51" fill="none" xmlns="http://www.w3.org/2000/svg">
<path d="M151.821 0.978027H155.164C155.429 0.978027 155.653 1.20216 155.653 1.46704V12.5921C155.653 12.857 155.429 13.0811 155.164 13.0811H151.821C151.556 13.0811 151.332 12.857 151.332 12.5921V1.48742C151.311 1.20216 151.536 0.978027 151.821 0.978027Z" fill="#F38F00"/>
<path d="M158.853 4.86976H157.793C157.467 4.86976 157.222 5.13464 157.222 5.44027V8.61886C157.222 8.94487 157.487 9.18937 157.793 9.18937H158.853C160.768 9.18937 162.317 10.7379 162.317 12.6532V23.5338C162.317 25.4491 160.768 26.9976 158.853 26.9976H148.132C146.216 26.9976 144.667 25.4491 144.667 23.5338V12.6736C144.667 10.7583 146.216 9.20975 148.132 9.20975H149.11C149.436 9.20975 149.681 8.94487 149.681 8.63924V5.46065C149.681 5.13464 149.416 4.89013 149.11 4.89013H148.132C143.832 4.89013 140.326 8.37435 140.326 12.694V23.5745C140.326 27.8738 143.811 31.3783 148.132 31.3783H158.853C163.153 31.3783 166.659 27.8941 166.659 23.5745V12.6736C166.638 8.37435 163.153 4.86976 158.853 4.86976Z" fill="#3E99D5"/>
<path d="M7.09279 42.2793C6.46097 41.9736 5.70685 41.8106 4.78969 41.8106H2.01782V49.8386H4.78969C5.68647 49.8386 6.46097 49.6756 7.09279 49.37C7.72461 49.0643 8.19338 48.5957 8.51949 48.0048C8.84559 47.4139 9.00864 46.6804 9.00864 45.8246C9.00864 44.9688 8.84559 44.2353 8.51949 43.6444C8.19338 43.0332 7.72461 42.5849 7.09279 42.2793ZM7.03165 48.0863C6.52211 48.5957 5.768 48.8402 4.72855 48.8402H3.19994V42.809H4.72855C5.768 42.809 6.52211 43.0535 7.03165 43.5629C7.54118 44.0519 7.78576 44.8262 7.78576 45.8246C7.78576 46.823 7.54118 47.5973 7.03165 48.0863Z" fill="#484848"/>
<path d="M12.6162 49.8386H17.8746V48.8809H13.7576V46.2321H17.6097V45.2745H13.7576V42.7479H17.8746V41.8106H12.6162V49.8386Z" fill="#484848"/>
<path d="M27.3724 47.9029L22.7458 41.8106H21.8286V49.8386H22.9292V43.7055L27.5762 49.8386H28.4933V41.8106H27.3724V47.9029Z" fill="#484848"/>
<path d="M31.2244 42.809H33.9555V49.8386H35.1376V42.809H37.8891V41.8106H31.2244V42.809Z" fill="#484848"/>
<path d="M42.5768 41.8106L39.01 49.8386H40.2125L41.0685 47.8825H45.1652L46.0212 49.8386H47.2441L43.6162 41.8106H42.5768ZM43.0659 43.1147H43.1067L44.7576 46.9453H41.4354L43.0659 43.1147Z" fill="#484848"/>
<path d="M51.1777 41.8106H49.9956V49.8386H55.1113V48.8198H51.1777V41.8106Z" fill="#484848"/>
<path d="M68.0943 42.2793C67.4624 41.9736 66.7083 41.8106 65.7912 41.8106H63.0193V49.8386H65.7912C66.6879 49.8386 67.4624 49.6756 68.0943 49.37C68.7261 49.0643 69.1948 48.5957 69.521 48.0048C69.8471 47.4139 70.0101 46.6804 70.0101 45.8246C70.0101 44.9688 69.8471 44.2353 69.521 43.6444C69.1948 43.0332 68.7261 42.5849 68.0943 42.2793ZM68.0331 48.0863C67.5236 48.5957 66.7695 48.8402 65.73 48.8402H64.2014V42.809H65.73C66.7695 42.809 67.5236 43.0535 68.0331 43.5629C68.5426 44.0519 68.7872 44.8262 68.7872 45.8246C68.7872 46.823 68.5426 47.5973 68.0331 48.0863Z" fill="#484848"/>
<path d="M74.7998 41.8106H73.6177V49.8386H74.7998V41.8106Z" fill="#484848"/>
<path d="M82.076 46.4563H84.053V48.6161C83.8084 48.6976 83.5638 48.7791 83.3192 48.8198C82.9931 48.8809 82.6466 48.9217 82.3002 48.9217C81.3218 48.9217 80.5881 48.6568 80.1397 48.127C79.671 47.5973 79.4468 46.8434 79.4468 45.845C79.4468 44.867 79.6913 44.0927 80.1601 43.5629C80.6289 43.0332 81.3422 42.7479 82.2594 42.7479C82.5855 42.7479 82.8708 42.7683 83.1154 42.8294C83.36 42.8905 83.5842 42.972 83.8288 43.0943C84.053 43.2165 84.2975 43.3795 84.5421 43.5833L84.9701 42.6664C84.6236 42.3608 84.2364 42.1163 83.8084 41.9533C83.3804 41.7902 82.8708 41.7087 82.2798 41.7087C81.4238 41.7087 80.7104 41.8718 80.099 42.2181C79.4875 42.5441 79.0391 43.0332 78.713 43.6444C78.3869 44.2557 78.2239 44.9892 78.2239 45.845C78.2239 46.7008 78.3665 47.4343 78.6723 48.0455C78.978 48.6568 79.4264 49.1254 80.0378 49.4718C80.6493 49.7978 81.383 49.9608 82.2798 49.9608C82.7893 49.9608 83.2785 49.8997 83.788 49.7978C84.2975 49.696 84.7255 49.5533 85.072 49.37V45.5801H82.0963V46.4563H82.076Z" fill="#484848"/>
<path d="M89.8821 41.8106H88.7V49.8386H89.8821V41.8106Z" fill="#484848"/>
<path d="M92.613 42.809H95.3441V49.8386H96.5467V42.809H99.2778V41.8106H92.613V42.809Z" fill="#484848"/>
<path d="M104.19 41.8106L100.623 49.8386H101.826L102.682 47.8825H106.778L107.634 49.8386H108.857L105.229 41.8106H104.19ZM104.679 43.1147H104.72L106.371 46.9453H103.048L104.679 43.1147Z" fill="#484848"/>
<path d="M112.75 41.8106H111.568V49.8386H116.684V48.8198H112.75V41.8106Z" fill="#484848"/>
<path d="M128.097 45.519L126.854 45.2745C126.365 45.1726 126.018 45.03 125.814 44.8466C125.611 44.6632 125.509 44.3983 125.509 44.0519C125.509 43.6444 125.672 43.298 125.998 43.0535C126.324 42.809 126.793 42.6868 127.363 42.6868C127.852 42.6868 128.301 42.7479 128.688 42.8905C129.075 43.0332 129.442 43.2573 129.789 43.5425L130.176 42.646C129.85 42.32 129.442 42.0959 128.973 41.9329C128.505 41.7699 127.975 41.6884 127.404 41.6884C126.793 41.6884 126.263 41.7902 125.794 41.994C125.325 42.1978 124.979 42.4626 124.714 42.8294C124.449 43.1962 124.327 43.624 124.327 44.1131C124.327 44.7039 124.51 45.193 124.877 45.5393C125.244 45.8857 125.794 46.1302 126.528 46.2932L127.771 46.5377C128.301 46.6396 128.668 46.7823 128.872 46.9656C129.075 47.149 129.177 47.3935 129.177 47.6992C129.177 48.0659 129.035 48.3715 128.729 48.5957C128.423 48.8198 127.954 48.9421 127.323 48.9421C126.956 48.9421 126.609 48.9013 126.283 48.8402C125.977 48.7791 125.672 48.6772 125.386 48.5549C125.101 48.4327 124.836 48.2697 124.591 48.0659L124.184 49.0032C124.571 49.3088 125.019 49.533 125.549 49.696C126.079 49.859 126.65 49.9405 127.302 49.9405C127.934 49.9405 128.464 49.8386 128.912 49.6552C129.361 49.4718 129.728 49.1866 129.972 48.8402C130.217 48.4938 130.339 48.0863 130.339 47.6177C130.339 47.0471 130.156 46.5785 129.789 46.2525C129.422 45.9265 128.872 45.682 128.097 45.519Z" fill="#484848"/>
<path d="M138.594 42.1978C138.023 41.8717 137.371 41.6884 136.596 41.6884C135.822 41.6884 135.149 41.8514 134.578 42.1978C134.008 42.5238 133.58 43.0128 133.294 43.624C132.989 44.2353 132.846 44.9688 132.846 45.8042C132.846 46.6396 132.989 47.3731 133.294 47.9844C133.6 48.5957 134.028 49.0847 134.578 49.4107C135.149 49.7571 135.801 49.9201 136.596 49.9201C137.371 49.9201 138.023 49.7571 138.594 49.4107C139.164 49.0643 139.592 48.5957 139.898 47.9844C140.204 47.3731 140.367 46.6396 140.367 45.8042C140.367 44.9688 140.204 44.2557 139.898 43.624C139.592 43.0128 139.144 42.5441 138.594 42.1978ZM138.451 48.0863C138.002 48.6364 137.391 48.9013 136.576 48.9013C135.74 48.9013 135.129 48.6364 134.701 48.0863C134.273 47.5362 134.069 46.7823 134.069 45.8042C134.069 44.8262 134.273 44.0723 134.701 43.5222C135.129 42.9924 135.76 42.7071 136.576 42.7071C137.391 42.7071 138.002 42.972 138.451 43.5222C138.879 44.0519 139.103 44.8262 139.103 45.8042C139.103 46.7823 138.899 47.5565 138.451 48.0863Z" fill="#484848"/>
<path d="M144.565 41.8106H143.383V49.8386H148.519V48.8198H144.565V41.8106Z" fill="#484848"/>
<path d="M156.02 46.5785C156.02 47.3528 155.836 47.9437 155.49 48.3308C155.123 48.7179 154.613 48.9217 153.9 48.9217C153.166 48.9217 152.636 48.7179 152.29 48.3308C151.943 47.9437 151.78 47.3528 151.78 46.5785V41.8106H150.598V46.5989C150.598 47.6992 150.863 48.5346 151.413 49.0847C151.964 49.6552 152.779 49.9201 153.9 49.9201C154.98 49.9201 155.795 49.6348 156.346 49.0847C156.896 48.5142 157.181 47.6992 157.181 46.5989V41.8106H156.02V46.5785Z" fill="#484848"/>
<path d="M159.484 42.809H162.236V49.8386H163.418V42.809H166.169V41.8106H159.484V42.809Z" fill="#484848"/>
<path d="M169.92 41.8106H168.738V49.8386H169.92V41.8106Z" fill="#484848"/>
<path d="M178.969 42.1978C178.398 41.8717 177.746 41.6884 176.972 41.6884C176.197 41.6884 175.525 41.8514 174.954 42.1978C174.383 42.5238 173.955 43.0128 173.67 43.624C173.364 44.2353 173.221 44.9688 173.221 45.8042C173.221 46.6396 173.364 47.3731 173.67 47.9844C173.976 48.5957 174.404 49.0847 174.954 49.4107C175.525 49.7571 176.177 49.9201 176.972 49.9201C177.746 49.9201 178.398 49.7571 178.969 49.4107C179.54 49.0643 179.968 48.5957 180.273 47.9844C180.579 47.3731 180.742 46.6396 180.742 45.8042C180.742 44.9688 180.579 44.2557 180.273 43.624C179.968 43.0128 179.519 42.5441 178.969 42.1978ZM178.826 48.0863C178.378 48.6364 177.766 48.9013 176.951 48.9013C176.116 48.9013 175.504 48.6364 175.076 48.0863C174.648 47.5362 174.444 46.7823 174.444 45.8042C174.444 44.8262 174.648 44.0723 175.076 43.5222C175.504 42.9924 176.136 42.7071 176.951 42.7071C177.766 42.7071 178.378 42.972 178.826 43.5222C179.254 44.0519 179.479 44.8262 179.479 45.8042C179.479 46.7823 179.275 47.5565 178.826 48.0863Z" fill="#484848"/>
<path d="M189.547 47.9029L184.9 41.8106H183.983V49.8386H185.104V43.7055L189.751 49.8386H190.648V41.8106H189.547V47.9029Z" fill="#484848"/>
<path d="M199.391 46.2525C199.024 45.9265 198.454 45.682 197.7 45.519L196.456 45.2745C195.967 45.1726 195.621 45.03 195.417 44.8466C195.213 44.6632 195.111 44.3983 195.111 44.0519C195.111 43.6444 195.274 43.298 195.6 43.0535C195.926 42.809 196.395 42.6868 196.966 42.6868C197.455 42.6868 197.903 42.7479 198.291 42.8905C198.678 43.0332 199.045 43.2573 199.391 43.5425L199.779 42.646C199.452 42.32 199.045 42.0959 198.576 41.9329C198.107 41.7699 197.577 41.6884 197.007 41.6884C196.395 41.6884 195.865 41.7902 195.397 41.994C194.928 42.1978 194.581 42.4626 194.316 42.8294C194.051 43.1962 193.929 43.624 193.929 44.1131C193.929 44.7039 194.112 45.193 194.479 45.5393C194.846 45.8857 195.397 46.1302 196.13 46.2932L197.374 46.5377C197.903 46.6396 198.27 46.7823 198.474 46.9656C198.678 47.149 198.78 47.3935 198.78 47.6992C198.78 48.0659 198.637 48.3715 198.331 48.5957C198.026 48.8198 197.557 48.9421 196.925 48.9421C196.558 48.9421 196.212 48.9013 195.886 48.8402C195.58 48.7791 195.274 48.6772 194.989 48.5549C194.704 48.4327 194.439 48.2697 194.194 48.0659L193.786 49.0032C194.174 49.3088 194.622 49.533 195.152 49.696C195.682 49.859 196.253 49.9405 196.905 49.9405C197.537 49.9405 198.066 49.8386 198.515 49.6552C198.963 49.4718 199.33 49.1866 199.575 48.8402C199.819 48.4938 199.942 48.0863 199.942 47.6177C199.942 47.0268 199.758 46.5785 199.391 46.2525Z" fill="#484848"/>
<path d="M198.229 4.86976H195.05C194.724 4.86976 194.479 5.13464 194.479 5.44027V24.7155L177.379 5.5014C177.033 5.11427 176.523 4.89013 175.993 4.89013H173.058C172.732 4.89013 172.488 5.15502 172.488 5.46065V30.6652C172.488 30.9912 172.753 31.2357 173.058 31.2357H176.238C176.564 31.2357 176.809 30.9708 176.809 30.6652V12.4698L193.909 30.6652C194.255 31.032 194.744 31.2561 195.254 31.2561H198.209C198.535 31.2561 198.78 30.9912 198.78 30.6856V5.46065C198.821 5.13464 198.556 4.86976 198.229 4.86976Z" fill="#484848"/>
<path d="M20.4832 4.86976H9.76262C5.46214 4.86976 1.95654 8.35398 1.95654 12.6736V30.7671C1.95654 31.0931 2.2215 31.3376 2.52722 31.3376H5.70672C6.03282 31.3376 6.2774 31.0727 6.2774 30.7671V23.9616H23.9277V30.7671C23.9277 31.0931 24.1926 31.3376 24.4984 31.3376H27.7186C28.0447 31.3376 28.2893 31.0727 28.2893 30.7671V12.6736C28.2893 8.37435 24.8041 4.86976 20.4832 4.86976ZM23.9481 19.642H6.29778V12.6736C6.29778 10.7583 7.84677 9.20975 9.76262 9.20975H20.4832C22.3991 9.20975 23.9481 10.7583 23.9481 12.6736V19.642Z" fill="#484848"/>
<path d="M91.0843 4.86976H65.6076C65.3426 4.86976 65.1184 5.09389 65.1184 5.35877V8.70036C65.1184 8.96524 65.3426 9.18937 65.6076 9.18937H76.1855V30.7263C76.1855 30.9912 76.4097 31.2153 76.6747 31.2153H80.0172C80.2822 31.2153 80.5064 30.9912 80.5064 30.7263V9.20975H91.0843C91.3493 9.20975 91.5735 8.98562 91.5735 8.72074V5.37915C91.5938 5.09389 91.3696 4.86976 91.0843 4.86976Z" fill="#484848"/>
<path d="M99.6039 4.86976H96.2614C95.9964 4.86976 95.7722 5.09389 95.7722 5.35877V30.7263C95.7722 30.9912 95.9964 31.2153 96.2614 31.2153H99.6039C99.8689 31.2153 100.093 30.9912 100.093 30.7263V5.37915C100.093 5.09389 99.8689 4.86976 99.6039 4.86976Z" fill="#484848"/>
<path d="M57.2717 23.3708C60.0843 22.189 62.0817 19.4179 62.0817 16.1782V12.6736C62.0817 8.37435 58.5964 4.86976 54.2756 4.86976H36.34C36.0139 4.86976 35.7693 5.13464 35.7693 5.44027V30.7671C35.7693 31.0931 36.0342 31.3376 36.34 31.3376H39.5195C39.8456 31.3376 40.0901 31.0727 40.0901 30.7671V23.9616H51.7483L58.4742 30.6856C58.8206 31.032 59.2894 31.2357 59.7786 31.2357H61.4906C61.8167 31.2357 62.0613 30.9708 62.0613 30.6652V28.9537C62.0613 28.4646 61.8575 27.996 61.511 27.6496L57.2717 23.3708ZM54.2756 19.642H40.0901V9.20975H54.2756C56.1914 9.20975 57.7404 10.7583 57.7404 12.6736V16.1782C57.7404 18.0935 56.1914 19.642 54.2756 19.642Z" fill="#484848"/>
<path d="M126.752 4.86976H116.031C111.731 4.86976 108.225 8.35398 108.225 12.6736V23.5541C108.225 27.8534 111.71 31.358 116.031 31.358H126.752C131.052 31.358 134.558 27.8738 134.558 23.5541C134.558 23.2281 134.293 22.9836 133.987 22.9836H130.808C130.482 22.9836 130.237 23.2485 130.237 23.5541C130.237 25.4694 128.688 27.018 126.772 27.018H116.052C114.136 27.018 112.587 25.4694 112.587 23.5541V12.6736C112.587 10.7583 114.136 9.20975 116.052 9.20975H126.772C128.688 9.20975 130.237 10.7583 130.237 12.6736C130.237 12.9996 130.502 13.2441 130.808 13.2441H133.987C134.313 13.2441 134.558 12.9792 134.558 12.6736C134.558 8.37435 131.073 4.86976 126.752 4.86976Z" fill="#484848"/>
</svg>
