<svg width="70" height="70" viewBox="0 0 70 70" fill="none" xmlns="http://www.w3.org/2000/svg">
<path d="M9.64711 51.7664H60.5052V14.741L48.3656 46.2972L35.0762 11.7524L21.7869 46.2972L9.64728 14.741V51.7664H9.64711ZM61.655 54.0658H7.34766V2.38916L21.7869 39.9225L35.0762 5.37777L48.3656 39.9225L62.8048 2.38916V54.0658H61.655Z" fill="#2B2A29"/>
<path d="M35.0751 0C36.0407 0 36.915 0.391515 37.5479 1.02424C38.1806 1.65715 38.5721 2.53144 38.5721 3.49699C38.5721 4.46254 38.1806 5.33683 37.5479 5.96973C36.915 6.60246 36.0407 6.99397 35.0751 6.99397C34.1096 6.99397 33.2353 6.60246 32.6024 5.96973C31.9696 5.33683 31.5781 4.46254 31.5781 3.49699C31.5781 2.53144 31.9696 1.65715 32.6024 1.02424C33.2353 0.391515 34.1096 0 35.0751 0ZM35.9221 2.65021C35.7054 2.43356 35.4058 2.29945 35.0751 2.29945C34.7444 2.29945 34.4448 2.43356 34.2282 2.65021C34.0115 2.86687 33.8774 3.16643 33.8774 3.49716C33.8774 3.82789 34.0115 4.12745 34.2282 4.34411C34.4448 4.56076 34.7442 4.69487 35.0751 4.69487C35.4058 4.69487 35.7054 4.56076 35.9221 4.34411C36.1387 4.12745 36.2728 3.82807 36.2728 3.49716C36.2728 3.16643 36.1387 2.86687 35.9221 2.65021Z" fill="#2B2A29"/>
<path d="M61.2314 0C62.1969 0 63.0712 0.391515 63.7041 1.02424C64.3368 1.65715 64.7283 2.53144 64.7283 3.49699C64.7283 4.46254 64.3368 5.33683 63.7041 5.96973C63.0712 6.60246 62.1969 6.99397 61.2314 6.99397C60.2658 6.99397 59.3915 6.60246 58.7586 5.96973C58.1259 5.33683 57.7344 4.46254 57.7344 3.49699C57.7344 2.53144 58.1259 1.65715 58.7586 1.02424C59.3915 0.391515 60.2658 0 61.2314 0ZM62.0783 2.65021C61.8617 2.43356 61.5621 2.29945 61.2314 2.29945C60.9006 2.29945 60.6011 2.43356 60.3844 2.65021C60.1678 2.86687 60.0337 3.16643 60.0337 3.49716C60.0337 3.82789 60.1678 4.12745 60.3844 4.34411C60.6011 4.56076 60.9005 4.69487 61.2314 4.69487C61.5621 4.69487 61.8617 4.56076 62.0783 4.34411C62.295 4.12745 62.4291 3.82807 62.4291 3.49716C62.4291 3.16643 62.295 2.86687 62.0783 2.65021Z" fill="#2B2A29"/>
<path d="M8.49699 0C9.46254 0 10.3368 0.391515 10.9697 1.02424C11.6025 1.65715 11.994 2.53144 11.994 3.49699C11.994 4.46254 11.6025 5.33683 10.9697 5.96973C10.3368 6.60246 9.46254 6.99397 8.49699 6.99397C7.53144 6.99397 6.65715 6.60246 6.02424 5.96973C5.39151 5.33683 5 4.46254 5 3.49699C5 2.53144 5.39151 1.65715 6.02424 1.02424C6.65715 0.391515 7.53144 0 8.49699 0ZM9.34393 2.65021C9.12728 2.43356 8.82772 2.29945 8.49699 2.29945C8.16625 2.29945 7.8667 2.43356 7.65004 2.65021C7.43338 2.86687 7.29928 3.16643 7.29928 3.49716C7.29928 3.82789 7.43338 4.12745 7.65004 4.34411C7.8667 4.56076 8.16608 4.69487 8.49699 4.69487C8.82772 4.69487 9.12728 4.56076 9.34393 4.34411C9.56059 4.12745 9.69469 3.82807 9.69469 3.49716C9.69469 3.16643 9.56059 2.86687 9.34393 2.65021Z" fill="#2B2A29"/>
<path d="M8.49747 55.8947H62.9172V70H7.34766V55.8947H8.49747ZM60.6175 58.1941H9.64711V67.7004H60.6175V58.1941Z" fill="#2B2A29"/>
</svg>
