<svg width="70" height="70" viewBox="0 0 70 70" fill="none" xmlns="http://www.w3.org/2000/svg">
<g clip-path="url(#clip0_182_3204)">
<path d="M70 35C70 44.6648 66.0824 53.4149 59.7486 59.7486C53.4148 66.0824 44.6648 70 35 70C25.3352 70 16.5851 66.0824 10.2514 59.7486C3.91761 53.4148 0 44.6648 0 35C0 25.3352 3.91761 16.5851 10.2514 10.2514C16.5851 3.91761 25.3352 0 35 0C39.635 0 44.18 0.922713 48.3898 2.66644C52.6031 4.41154 56.4711 6.97381 59.7486 10.2513L58.1976 11.8023C55.117 8.72179 51.4943 6.31881 47.5586 4.68874C43.6194 3.05702 39.3567 2.19368 35 2.19368C25.9407 2.19368 17.7391 5.8657 11.8024 11.8023C5.86584 17.7389 2.19381 25.9405 2.19381 34.9999C2.19381 44.059 5.86584 52.2608 11.8024 58.1974C17.7391 64.134 25.9407 67.806 35 67.806C44.0592 67.806 52.2609 64.134 58.1976 58.1974C64.1342 52.2608 67.8062 44.059 67.8062 34.9999H70V35Z" fill="#2B2A29"/>
<path d="M60.2779 2.25095L60.2328 11.9179L50.9043 14.4607L50.3301 12.3526L58.0552 10.2467L58.0927 2.24243L60.2779 2.25095Z" fill="#2B2A29"/>
<path d="M35.8863 12.5773L35.9652 33.314L53.1572 33.5171L53.1315 35.7024L33.7883 35.4738L33.7012 12.5773H35.8863Z" fill="#2B2A29"/>
</g>
<defs>
<clipPath id="clip0_182_3204">
<rect width="70" height="70" fill="white"/>
</clipPath>
</defs>
</svg>
