<svg width="70" height="70" viewBox="0 0 70 70" fill="none" xmlns="http://www.w3.org/2000/svg">
<g clip-path="url(#clip0_182_3186)">
<path d="M70 35C70 44.6649 66.0824 53.4149 59.7487 59.7487C53.4149 66.0825 44.6649 70 35 70C25.3351 70 16.5851 66.0824 10.2513 59.7487C3.91759 53.4149 0 44.6649 0 35C0 25.3351 3.91759 16.585 10.2513 10.2513C16.5851 3.91759 25.3351 0 35 0C39.635 0 44.1799 0.922701 48.3898 2.66645C52.6032 4.41161 56.4712 6.97386 59.7487 10.2513L58.1975 11.8025C55.117 8.72195 51.4943 6.31901 47.5586 4.68881C43.6194 3.05716 39.3567 2.19379 35 2.19379C25.9408 2.19379 17.7391 5.86579 11.8025 11.8025C5.86579 17.7391 2.1938 25.9407 2.1938 35C2.1938 44.0592 5.86579 52.2609 11.8025 58.1975C17.7391 64.1342 25.9408 67.8062 35 67.8062C44.0593 67.8062 52.2609 64.1342 58.1975 58.1975C64.1342 52.2609 67.8062 44.0592 67.8062 35H70V35Z" fill="#2B2A29"/>
<path d="M60.2779 2.251L60.2327 11.9178L50.9042 14.4608L50.3301 12.3526L58.0553 10.2468L58.0927 2.24243L60.2779 2.251Z" fill="#2B2A29"/>
<path d="M27.4082 46.9255V19.1101H37.9102C39.7555 19.1101 41.167 19.2008 42.1447 19.3756C43.5108 19.6022 44.6568 20.036 45.5827 20.6705C46.5086 21.3115 47.2532 22.205 47.8165 23.3511C48.3798 24.4971 48.6582 25.7597 48.6582 27.1388C48.6582 29.4956 47.9071 31.4962 46.3985 33.1279C44.8964 34.766 42.1705 35.5818 38.2339 35.5818H31.0987V46.9255H27.4082L27.4082 46.9255ZM31.0987 32.3185H38.2857C40.6684 32.3185 42.3518 31.8783 43.3554 30.9912C44.3525 30.1042 44.8511 28.8611 44.8511 27.2488C44.8511 26.0899 44.5597 25.0927 43.9705 24.264C43.3813 23.4352 42.6044 22.8849 41.6461 22.6194C41.0245 22.4575 39.8785 22.3734 38.2145 22.3734H31.0987V32.3185L31.0987 32.3185Z" fill="#2B2A29"/>
<path d="M38.749 38.8403H22.9062V40.5717H38.749V38.8403Z" fill="#2B2A29"/>
</g>
<defs>
<clipPath id="clip0_182_3186">
<rect width="70" height="70" fill="white"/>
</clipPath>
</defs>
</svg>
