<svg width="70" height="70" viewBox="0 0 70 70" fill="none" xmlns="http://www.w3.org/2000/svg">
<g clip-path="url(#clip0_138_2405)">
<path d="M41.9088 69.8005C40.6692 69.2021 40.2499 68.2046 40.3229 66.8808C40.3958 65.3212 40.3411 63.7616 40.3411 62.2021C40.3411 60.9508 40.5051 60.6062 41.5077 59.7901C41.4531 59.6813 41.3984 59.5725 41.3072 59.4637C38.8281 56.4715 38.0989 52.9896 38.427 49.2176C38.6275 46.7331 39.2838 44.3212 40.0494 41.9456C40.1952 41.5285 40.2864 41.0751 40.3046 40.6217C40.4505 36.9404 40.5598 33.259 40.7239 29.5596C40.7603 28.7979 40.8333 28.0181 41.0338 27.2746C41.763 24.6632 44.0234 23.0673 46.7577 23.1943C49.3281 23.3031 51.4791 25.1891 52.0077 27.8186C52.1353 28.4715 52.1718 29.1606 52.1718 29.8316C52.1171 34.329 52.0624 38.8445 51.9895 43.3419C51.9895 43.614 51.9713 43.886 51.8801 44.1399C51.6978 44.6476 51.2786 44.8653 50.7499 44.7927C50.2395 44.7202 49.9296 44.4119 49.8567 43.9223C49.8202 43.7046 49.8385 43.4689 49.8385 43.2513C49.8932 38.9352 49.9661 34.601 50.0025 30.285C50.0025 29.614 49.9661 28.9248 49.8385 28.2539C49.5103 26.4223 48.0885 25.2979 46.2838 25.3523C44.5885 25.4067 43.2213 26.6217 43.0208 28.4171C42.8567 30.0855 42.8202 31.7539 42.7656 33.4223C42.6562 36.0155 42.6015 38.6269 42.4739 41.2202C42.4557 41.7098 42.2734 42.1813 42.1275 42.6528C41.2161 45.4637 40.4869 48.2927 40.5781 51.285C40.6692 54.3497 41.7812 56.9611 44.0234 59.0647C44.2786 59.3005 44.6978 59.4637 45.026 59.4818C50.9869 59.5 56.9478 59.5 62.9088 59.5C63.3463 59.5 63.5286 59.3912 63.638 58.9378C64.7499 53.9689 65.9166 49.0181 66.9557 44.0492C67.1562 43.1243 66.9557 42.1088 66.8827 41.1476C66.6458 38.1736 66.3906 35.1995 66.0807 32.2254C66.0077 31.5544 65.8255 30.8109 65.4609 30.2487C63.8202 27.6554 62.0885 25.0984 60.2109 22.5596C60.2109 22.7953 60.2109 23.0129 60.2109 23.2487C60.2109 26.8394 60.138 30.4482 60.2291 34.0388C60.2838 36.3601 58.3333 38.8264 54.8515 38.3549C54.2864 38.2824 53.9765 37.8653 53.9765 37.3031C53.9765 36.7046 54.3411 36.3238 54.9244 36.2331C55.3072 36.1787 55.69 36.215 56.0911 36.1969C57.2031 36.1243 58.0234 35.3083 58.0234 34.2202C58.0234 28.0363 58.0234 21.8704 58.0234 15.6865C58.0234 15.5414 58.0051 15.3782 57.9869 15.1606C57.677 15.1606 57.4218 15.1606 57.1484 15.1606C47.1223 15.1606 37.0781 15.1606 27.052 15.1606C25.94 15.1606 25.4114 14.816 25.4114 14.0725C25.4114 13.3471 25.9583 12.9844 27.052 12.9844C37.0781 12.9844 47.1223 12.9844 57.1484 12.9844C57.4218 12.9844 57.677 12.9844 58.0234 12.9844C58.0234 12.7487 58.0234 12.5673 58.0234 12.386C58.0234 9.73832 58.0234 7.09065 58.0234 4.44299C58.0234 3.10102 57.2942 2.37563 55.9635 2.37563C43.3124 2.37563 30.6614 2.37563 18.0286 2.37563C17.8463 2.37563 17.6822 2.39376 17.427 2.4119C17.427 3.19169 17.4452 3.91708 17.427 4.6606C17.4088 5.4948 16.9713 6.02071 16.2968 6.00257C15.6588 5.98444 15.2577 5.4948 15.2577 4.67874C15.2395 3.93521 15.2577 3.19169 15.2577 2.4119C15.0208 2.39376 14.8385 2.37563 14.6744 2.37563C11.4296 2.37563 8.1666 2.37563 4.92181 2.37563C3.57285 2.37563 2.82545 3.08288 2.82545 4.40672C2.80722 7.09065 2.82545 9.79272 2.82545 12.4767C2.82545 12.6036 2.86191 12.7305 2.88014 12.9482C3.90097 12.9482 4.88535 12.9482 5.88795 12.9482C6.76295 12.9482 7.25514 13.3471 7.27337 14.0181C7.2916 14.7072 6.76295 15.1243 5.85149 15.1243C4.86712 15.1243 3.90097 15.1243 2.82545 15.1243C2.82545 15.4145 2.82545 15.6502 2.82545 15.886C2.82545 21.8886 2.82545 27.873 2.82545 33.8756C2.82545 34.2202 2.84368 34.5647 2.9166 34.8912C3.08066 35.6528 3.62754 36.1787 4.37493 36.1787C7.94785 36.1969 11.5208 36.1787 15.0937 36.1787C15.1301 36.1787 15.1666 36.1425 15.2942 36.0881C15.2942 35.8523 15.2942 35.5984 15.2942 35.3264C15.2942 30.4482 15.2942 25.5518 15.2942 20.6736C15.2942 19.5492 15.6223 19.0596 16.388 19.0596C17.1353 19.0777 17.4817 19.5673 17.4817 20.6917C17.4817 25.5518 17.4817 30.4119 17.4817 35.2901C17.4817 35.5622 17.4817 35.8342 17.4817 36.1969C17.7916 36.1969 18.0468 36.1969 18.302 36.1969C24.2447 36.1969 30.1692 36.1969 36.1119 36.1969C36.3307 36.1969 36.5676 36.1787 36.7864 36.215C37.4244 36.2694 37.8619 36.7409 37.8437 37.3212C37.8255 37.9197 37.388 38.3368 36.7317 38.373C36.5312 38.3912 36.3307 38.373 36.1119 38.373C25.7577 38.373 15.4036 38.3186 5.06764 38.4093C2.26035 38.4274 0.583265 36.5777 0.619723 33.93C0.674411 27.8186 0.637952 21.7072 0.637952 15.5958C0.637952 11.9508 0.637952 8.30568 0.637952 4.67874C0.637952 1.84972 2.29681 0.199463 5.12233 0.199463C22.0025 0.199463 38.8827 0.199463 55.763 0.199463C58.6249 0.199463 60.2473 1.81345 60.2473 4.6606C60.2473 9.03107 60.2473 13.4015 60.2656 17.7539C60.2656 18.1528 60.4114 18.6062 60.6301 18.9326C62.5807 21.9067 64.5494 24.8627 66.5729 27.8005C67.6666 29.3782 68.2682 31.0647 68.414 32.9689C68.6692 36.3964 68.9973 39.8238 69.289 43.2513C69.3255 43.5958 69.2708 43.9767 69.1978 44.3212C68.1041 49.1995 66.9921 54.0596 65.8801 58.9378C65.8437 59.1191 65.8254 59.2824 65.789 59.5C67.2473 59.9171 67.7031 60.9326 67.6484 62.3471C67.5937 63.9067 67.5755 65.4663 67.6484 67.0259C67.7031 68.3497 67.1926 69.2383 65.9713 69.728C57.914 69.8005 49.9114 69.8005 41.9088 69.8005ZM42.5468 67.5881C50.1848 67.5881 57.7682 67.5881 65.3697 67.5881C65.3697 65.6295 65.3697 63.7254 65.3697 61.8031C57.7499 61.8031 50.1666 61.8031 42.5468 61.8031C42.5468 63.7435 42.5468 65.6295 42.5468 67.5881Z" fill="black"/>
<path d="M19.9618 14.9974C21.4201 16.3937 22.1675 18.1165 22.6597 19.9663C22.8784 20.7461 22.6232 21.3083 21.9852 21.4896C21.329 21.6891 20.855 21.3445 20.5816 20.5829C20.2899 19.7668 20.0347 18.9507 19.6701 18.1891C19.0503 16.8834 17.993 16.0129 16.6805 15.4507C16.4618 15.3601 16.0972 15.3963 15.8602 15.5051C14.0373 16.3031 12.9435 17.7357 12.3784 19.6036C12.2691 19.9663 12.1597 20.3471 12.0321 20.7098C11.7951 21.3808 11.2847 21.6891 10.6649 21.5077C10.0633 21.3445 9.77166 20.8005 9.95395 20.1114C10.4279 18.2072 11.1753 16.43 12.6154 15.088C11.704 14.4715 10.7378 13.9456 9.91749 13.2564C8.69614 12.2409 7.8576 10.9715 7.76645 9.3212C7.63885 7.05436 9.35239 5.60359 11.5946 6.05695C13.381 6.41965 14.6206 7.544 15.5685 9.01292C15.842 9.43002 16.0607 9.86525 16.2795 10.2461C16.8993 9.41188 17.4826 8.52328 18.1571 7.72535C18.8498 6.90929 19.743 6.38338 20.8003 6.12949C23.5529 5.45851 25.5217 7.41706 24.7925 10.1554C24.2274 12.259 22.7326 13.5466 20.9097 14.544C20.5998 14.6891 20.3081 14.816 19.9618 14.9974ZM17.592 13.4378C19.2691 13.0207 20.7274 12.4041 21.7847 11.1347C22.1857 10.645 22.4956 10.0285 22.6597 9.41188C22.9149 8.45074 22.3862 7.88856 21.4383 8.21499C20.7092 8.46887 19.9618 8.94037 19.4331 9.50255C18.4305 10.5544 17.9748 11.9326 17.592 13.4378ZM14.9487 13.4015C14.9852 13.2927 15.0034 13.2564 15.0034 13.2202C14.967 13.0751 14.9305 12.9119 14.8758 12.7668C14.3654 11.1891 13.7456 9.64763 12.3055 8.65022C11.5217 8.10618 10.5373 7.97924 10.1545 8.36007C9.78989 8.72276 9.86281 9.66577 10.355 10.4637C11.4123 12.1684 13.0711 12.93 14.9487 13.4015Z" fill="black"/>
</g>
<defs>
<clipPath id="clip0_138_2405">
<rect width="70" height="70" fill="white"/>
</clipPath>
</defs>
</svg>
