<svg width="70" height="70" viewBox="0 0 70 70" fill="none" xmlns="http://www.w3.org/2000/svg">
<path d="M55.9858 69.9999H15.693C13.8515 69.9999 12.178 69.2471 10.9654 68.0345C9.75272 66.8219 9 65.1483 9 63.3068V27.3338C9 26.6025 9.00332 27.2116 9.00231 27.0172C8.9992 26.4594 8.99774 26.1848 9.3797 25.9164H9.38308C10.3601 25.2312 10.5111 25.7068 10.8022 26.6464C10.8284 26.7312 10.8597 26.8319 10.8896 26.9252C11.1188 27.6377 11.5734 28.2538 12.1693 28.6891C12.7446 29.1094 13.4544 29.3582 14.2216 29.3582H57.4572C58.2173 29.3582 58.9203 29.1151 59.4917 28.7035C60.0828 28.2779 60.5374 27.6736 60.7738 26.9722C60.8185 26.8393 60.8592 26.7018 60.8901 26.5971C61.1 25.8862 61.2255 25.4731 62.1098 25.8191C62.6758 26.0403 62.6757 26.3926 62.6755 27.2359H62.6789V63.3069C62.6789 65.1485 61.9262 66.822 60.7135 68.0346C59.5009 69.2472 57.8273 70 55.9859 70L55.9858 69.9999ZM15.693 68.274H55.9858C57.3508 68.274 58.5925 67.7149 59.4932 66.8142C60.3939 65.9135 60.953 64.6718 60.953 63.3068V29.7296C60.8079 29.861 60.6554 29.9844 60.4963 30.099C59.6363 30.7183 58.5858 31.084 57.4572 31.084H14.2216C13.0786 31.084 12.0164 30.7099 11.1513 30.0778C11.0035 29.9698 10.8614 29.8541 10.7258 29.7313V63.3068C10.7258 64.6718 11.2849 65.9135 12.1856 66.8142C13.0863 67.7149 14.328 68.274 15.693 68.274Z" fill="#2B2A29"/>
<path d="M62.6798 43.5649V53.1452H46.0888C44.652 53.1452 43.3463 52.558 42.4003 51.612C41.4544 50.6661 40.8672 49.3604 40.8672 47.9236C40.8672 46.4867 41.4544 45.181 42.4003 44.2351C43.3463 43.2891 44.652 42.7019 46.0888 42.7019H62.6798V43.5648V43.5649ZM60.954 51.4193V44.4278H46.0888C45.1284 44.4278 44.2547 44.8214 43.6207 45.4554C42.9867 46.0894 42.5931 46.9632 42.5931 47.9236C42.5931 48.884 42.9867 49.7577 43.6207 50.3917C44.2547 51.0257 45.1285 51.4193 46.0888 51.4193H60.954V51.4193Z" fill="#2B2A29"/>
<path d="M57.4573 31.0839H14.2216C12.7848 31.0839 11.4791 30.4967 10.5332 29.5508C9.58721 28.6048 9 27.2992 9 25.8623C9 24.4254 9.58721 23.1198 10.5332 22.1738C11.4791 21.2279 12.7848 20.6407 14.2216 20.6407H39.4422L38.1609 22.0766C37.703 22.5899 37.3365 23.1862 37.0874 23.8397C36.9463 24.21 36.8428 24.5995 36.7817 25.0036H48.0392C47.9781 24.5995 47.8746 24.2099 47.7335 23.8397C47.4844 23.1862 47.1179 22.5899 46.66 22.0766L45.3787 20.6407H57.4573C58.8942 20.6407 60.1999 21.2279 61.1458 22.1738C62.0918 23.1198 62.679 24.4254 62.679 25.8623C62.679 27.2992 62.0918 28.6048 61.1458 29.5508C60.1999 30.4967 58.8942 31.0839 57.4573 31.0839H57.4573ZM14.2216 29.3581H57.4573C58.4177 29.3581 59.2915 28.9645 59.9255 28.3305C60.5595 27.6965 60.953 26.8227 60.953 25.8624C60.953 24.9019 60.5595 24.0282 59.9255 23.3942C59.2915 22.7602 58.4177 22.3666 57.4573 22.3666H48.9523C49.1005 22.6432 49.2318 22.9302 49.3447 23.2263C49.658 24.0484 49.8297 24.9386 49.8297 25.8667V26.7296H34.9911V25.8667C34.9911 24.9385 35.1628 24.0484 35.4761 23.2263C35.589 22.9302 35.7203 22.6431 35.8685 22.3666H14.2216C13.2612 22.3666 12.3874 22.7602 11.7534 23.3942C11.1194 24.0282 10.7259 24.902 10.7259 25.8624C10.7259 26.8228 11.1194 27.6965 11.7534 28.3305C12.3874 28.9645 13.2612 29.3581 14.2216 29.3581H14.2216Z" fill="#2B2A29"/>
<path d="M16.9434 25.0558H61.795V26.7817H16.9434V25.0558Z" fill="#2B2A29"/>
<path d="M32.7611 0.000152588C34.8098 0.000152588 36.6646 0.830644 38.0072 2.17329C39.3498 3.51589 40.1804 5.37075 40.1804 7.41944C40.1804 9.46812 39.3499 11.323 38.0072 12.6656C36.6646 14.0082 34.8098 14.8387 32.7611 14.8387C30.7124 14.8387 28.8575 14.0082 27.5149 12.6656C26.1723 11.323 25.3418 9.46812 25.3418 7.41944C25.3418 5.37075 26.1723 3.51589 27.5149 2.17329C28.8575 0.830644 30.7124 0.000152588 32.7611 0.000152588ZM36.787 3.39355C35.7568 2.3633 34.3333 1.72603 32.7611 1.72603C31.1888 1.72603 29.7654 2.3633 28.7352 3.39355C27.7049 4.42375 27.0677 5.84719 27.0677 7.41944C27.0677 8.99168 27.7049 10.4151 28.7352 11.4453C29.7654 12.4755 31.1888 13.1128 32.7611 13.1128C34.3333 13.1128 35.7568 12.4755 36.787 11.4453C37.8172 10.4151 38.4545 8.99168 38.4545 7.41944C38.4545 5.84719 37.8172 4.42375 36.787 3.39355Z" fill="#2B2A29"/>
<path d="M42.4095 26.7296H34.9902V25.8666C34.9902 23.8179 35.8207 21.9631 37.1634 20.6205C38.506 19.2779 40.3608 18.4473 42.4095 18.4473C44.4582 18.4473 46.3131 19.2778 47.6557 20.6205C48.9983 21.9631 49.8288 23.8179 49.8288 25.8666V26.7296H42.4095ZM36.7811 25.0037H48.0379C47.8514 23.7769 47.2734 22.6787 46.4354 21.8407C45.4052 20.8105 43.9817 20.1732 42.4095 20.1732C40.8372 20.1732 39.4138 20.8105 38.3836 21.8407C37.5455 22.6787 36.9676 23.7769 36.7811 25.0037H36.7811Z" fill="#2B2A29"/>
<path d="M47.2482 45.1324C48.0189 45.1324 48.7167 45.4449 49.2218 45.95C49.7269 46.4551 50.0393 47.1529 50.0393 47.9236C50.0393 48.6943 49.7269 49.3921 49.2218 49.8971C48.7167 50.4023 48.0189 50.7147 47.2482 50.7147C46.4775 50.7147 45.7798 50.4023 45.2746 49.8971C44.7695 49.3921 44.457 48.6943 44.457 47.9236C44.457 47.1529 44.7695 46.4551 45.2746 45.95C45.7798 45.4448 46.4775 45.1324 47.2482 45.1324ZM48.0015 47.1703C47.8088 46.9776 47.5424 46.8583 47.2482 46.8583C46.954 46.8583 46.6876 46.9776 46.4949 47.1703C46.3021 47.363 46.1829 47.6294 46.1829 47.9236C46.1829 48.2178 46.3021 48.4842 46.4949 48.6769C46.6876 48.8696 46.954 48.9889 47.2482 48.9889C47.5424 48.9889 47.8088 48.8696 48.0015 48.6769C48.1942 48.4843 48.3135 48.2178 48.3135 47.9236C48.3135 47.6294 48.1942 47.363 48.0015 47.1703Z" fill="#2B2A29"/>
</svg>
