<svg width="70" height="71" viewBox="0 0 70 71" fill="none" xmlns="http://www.w3.org/2000/svg">
<path d="M0 51.4609C0.309896 50.112 0.729166 48.7995 1.56771 47.651C2.86198 45.9193 4.55729 44.8437 6.74479 44.3333C5.39583 42.4375 4.94011 40.3958 5.57813 38.1901C6.01563 36.6771 6.90885 35.4739 8.20312 34.5625C10.7552 32.7578 14.2734 32.9948 16.5885 35.0911C19.1953 37.4609 19.487 40.6693 17.4453 44.2969C18.1198 44.5521 18.8307 44.7344 19.4688 45.0625C22.4583 46.612 24.026 49.0911 24.1172 52.4453C24.1901 54.651 24.1354 56.8568 24.1354 59.0625C24.1354 60.0286 23.4245 60.5937 22.6589 60.3021C22.112 60.0833 21.9661 59.6458 21.9661 59.0989C21.9844 56.9661 21.9844 54.8151 21.9661 52.6823C21.9479 49.4739 19.9063 46.9765 16.8255 46.5026C15.8958 46.3568 14.875 46.4661 13.9453 46.6484C12.6693 46.8854 11.4297 46.9219 10.1719 46.612C5.70573 45.5 2.29687 48.7265 2.22396 52.3724C2.1875 54.5599 2.20573 56.7474 2.22396 58.9167C2.22396 59.5182 2.15104 60.0833 1.51302 60.3203C0.838542 60.5573 0.382812 60.2109 0.0364578 59.664C-5.56853e-07 56.9297 0 54.1953 0 51.4609ZM12.0495 44.6797C14.5833 44.6797 16.6432 42.6198 16.625 40.0859C16.6068 37.5885 14.5651 35.5469 12.0677 35.5104C9.55208 35.4922 7.47396 37.5521 7.45573 40.0859C7.47396 42.6562 9.51563 44.6979 12.0495 44.6797Z" fill="black"/>
<path d="M63.1456 44.3515C65.2602 44.8255 66.9373 45.8646 68.2133 47.5599C69.2524 48.9453 69.8175 50.513 69.8539 52.2448C69.8904 54.5416 69.8721 56.8385 69.8721 59.1354C69.8721 59.9375 69.4347 60.3932 68.7419 60.375C68.0857 60.3568 67.6846 59.901 67.6846 59.1354C67.6846 56.9844 67.6482 54.8151 67.6846 52.664C67.7393 49.4739 65.2237 45.901 60.3383 46.4297C59.5727 46.5208 58.8253 46.8125 58.0779 46.8489C57.3669 46.8854 56.6195 46.776 55.9268 46.612C52.044 45.6823 49.1091 47.888 48.2706 50.6041C48.0518 51.3333 47.9607 52.1172 47.9425 52.8828C47.906 54.9791 47.9425 57.0573 47.9242 59.1536C47.9242 60.0104 47.3956 60.4844 46.6664 60.375C46.156 60.2838 45.7914 59.9557 45.7914 59.4635C45.8097 56.6015 45.5909 53.7031 45.9919 50.8958C46.4841 47.5417 48.7445 45.4271 52.0258 44.4791C52.1534 44.4427 52.281 44.4062 52.4815 44.3333C51.1873 42.4922 50.6951 40.5234 51.2966 38.3359C51.7159 36.7864 52.5909 35.5469 53.9034 34.6172C56.4737 32.776 59.9737 32.9948 62.3435 35.0729C64.3487 36.8776 65.7524 40.5781 63.1456 44.3515ZM62.38 40.1406C62.38 37.5885 60.3383 35.5286 57.8044 35.5286C55.2888 35.5286 53.2107 37.6068 53.2107 40.1224C53.2107 42.6198 55.2524 44.6614 57.768 44.6797C60.3201 44.7161 62.38 42.6745 62.38 40.1406Z" fill="black"/>
<path d="M29.568 12.1406C26.9977 8.45833 28.3466 4.61198 30.6253 2.73437C33.1044 0.692708 36.7503 0.692708 39.2477 2.73437C41.4898 4.55729 42.9117 8.40365 40.2867 12.1589C40.5966 12.25 40.9065 12.3411 41.1982 12.4323C44.5524 13.5078 46.8675 16.4974 46.9586 20.0156C47.0133 22.3125 46.9768 24.6094 46.9768 26.9062C46.9768 27.7266 46.5576 28.2005 45.9013 28.2187C45.2268 28.2187 44.7893 27.7266 44.7893 26.8698C44.7711 24.7917 44.7164 22.7318 44.8076 20.6536C44.9534 17.4089 42.4378 13.7813 37.5706 14.237C36.8961 14.2917 36.2399 14.6198 35.5836 14.638C34.7633 14.6745 33.8883 14.638 33.0862 14.4375C28.4013 13.2526 24.9742 16.8073 25.0654 20.3802C25.1201 22.513 25.0836 24.6641 25.0654 26.7969C25.0654 27.1797 24.9378 27.6536 24.6826 27.8906C24.4638 28.1094 23.9534 28.2005 23.6435 28.1094C23.3518 28 22.9508 27.599 22.9508 27.3073C22.9326 24.5182 22.7138 21.6927 23.0784 18.9401C23.5341 15.4401 25.7945 13.2526 29.2034 12.2865C29.3128 12.25 29.4404 12.1953 29.568 12.1406ZM35.0367 3.3724C32.5211 3.29948 30.4247 5.32292 30.3518 7.875C30.2789 10.3724 32.3388 12.487 34.8727 12.5417C37.3518 12.5964 39.43 10.5911 39.5211 8.07552C39.6122 5.55989 37.5888 3.44531 35.0367 3.3724Z" fill="black"/>
<path d="M34.4536 69.2708C29.7505 69.2526 24.8651 68.0312 20.3078 65.5521C19.5239 65.1328 19.287 64.4948 19.6698 63.8932C20.0161 63.3463 20.6177 63.2552 21.3469 63.638C23.662 64.8776 26.0864 65.8073 28.6568 66.3724C35.4562 67.8489 41.9641 67.0104 48.162 63.8385C48.4172 63.7109 48.6724 63.5469 48.964 63.4557C49.5109 63.2734 49.9667 63.4557 50.2401 63.9661C50.5135 64.4583 50.4042 64.9323 49.9849 65.3151C49.8391 65.4427 49.6385 65.5338 49.4745 65.6432C44.9172 68.0495 40.0682 69.2526 34.4536 69.2708Z" fill="black"/>
<path d="M5.30415 30.6068C5.43175 30.1875 5.57758 29.6042 5.75987 29.0573C8.49425 21.0911 13.5802 15.1667 21.0541 11.2838C21.2182 11.1927 21.3823 11.1198 21.5463 11.0469C22.1297 10.8281 22.6583 11.0286 22.9317 11.5573C23.2052 12.0677 23.0411 12.651 22.5125 12.9792C21.838 13.3802 21.1088 13.7266 20.4344 14.1276C13.9812 18.0104 9.67915 23.5885 7.5281 30.8073C7.36404 31.3359 7.19998 31.8099 6.59841 31.9557C5.86925 32.1016 5.24946 31.5182 5.30415 30.6068Z" fill="black"/>
<path d="M64.5687 30.862C64.5504 31.4453 64.2588 31.8099 63.7119 31.9375C63.165 32.0651 62.6728 31.7552 62.4541 31.1536C62.053 30.0234 61.7249 28.8568 61.251 27.7448C58.5348 21.2552 54.014 16.4427 47.7978 13.1979C47.6885 13.1432 47.5973 13.1068 47.4879 13.0338C46.8499 12.6693 46.6312 12.1224 46.9046 11.5573C47.178 10.9557 47.8161 10.7187 48.4541 11.0833C49.7848 11.8125 51.1338 12.5234 52.3916 13.3984C58.3708 17.5729 62.3812 23.1693 64.4228 30.1693C64.4593 30.3151 64.514 30.4792 64.5322 30.625C64.5687 30.7161 64.5687 30.7891 64.5687 30.862Z" fill="black"/>
<path d="M29.3681 24.6641C29.3681 25.4661 29.3863 26.25 29.3681 27.0521C29.3498 27.763 28.9306 28.2188 28.3108 28.237C27.7092 28.2552 27.217 27.7995 27.1988 27.1068C27.1806 25.5026 27.1623 23.8802 27.1988 22.276C27.217 21.5651 27.691 21.1641 28.329 21.1823C28.9306 21.2005 29.3316 21.6198 29.3498 22.2943C29.3863 23.0599 29.3681 23.862 29.3681 24.6641Z" fill="black"/>
<path d="M40.4866 24.7005C40.4866 23.8984 40.4684 23.1146 40.4866 22.3125C40.5048 21.5833 40.9059 21.1641 41.5439 21.1458C42.1819 21.1276 42.6377 21.5469 42.6559 22.2578C42.6923 23.8438 42.6741 25.4297 42.6559 27.0156C42.6377 27.7448 42.1455 28.2188 41.5257 28.2005C40.9059 28.1823 40.5048 27.7266 40.4866 26.9974C40.4866 26.25 40.4866 25.4661 40.4866 24.7005Z" fill="black"/>
<path d="M65.5339 56.9297C65.5339 57.6953 65.5521 58.4792 65.5339 59.2448C65.5156 59.9375 65.1328 60.3568 64.5312 60.375C63.8932 60.4115 63.401 59.9922 63.3828 59.2995C63.3464 57.6589 63.3464 56.0365 63.3828 54.3958C63.401 53.7214 63.875 53.3203 64.4766 53.3203C65.0964 53.3203 65.5339 53.7578 65.5521 54.4687C65.5521 55.2891 65.5339 56.1094 65.5339 56.9297Z" fill="black"/>
<path d="M6.52539 56.8568C6.52539 57.6042 6.54362 58.3516 6.52539 59.099C6.50716 59.901 6.08789 60.375 5.41341 60.375C4.73893 60.375 4.35612 59.901 4.33789 59.0807C4.33789 57.5859 4.33789 56.0911 4.33789 54.5964C4.33789 53.776 4.75716 53.3203 5.43164 53.3203C6.10612 53.3203 6.50716 53.7943 6.52539 54.6146C6.52539 55.362 6.52539 56.1094 6.52539 56.8568Z" fill="black"/>
<path d="M19.7793 56.8021C19.7793 57.6042 19.7975 58.388 19.7793 59.1901C19.7611 59.9375 19.3236 60.3932 18.6673 60.375C18.0475 60.3568 17.61 59.9193 17.5918 59.2083C17.5736 57.6406 17.5736 56.0729 17.5918 54.5052C17.5918 53.7578 18.0475 53.3021 18.7038 53.3203C19.3418 53.3386 19.7611 53.7943 19.7793 54.5599C19.7975 55.3073 19.7793 56.0547 19.7793 56.8021Z" fill="black"/>
<path d="M52.263 56.875C52.263 57.6406 52.2813 58.4245 52.263 59.1901C52.2448 59.9375 51.8073 60.3932 51.151 60.375C50.5313 60.3568 50.0938 59.9193 50.0938 59.2083C50.0755 57.6406 50.0755 56.0729 50.0938 54.5052C50.0938 53.776 50.5495 53.3021 51.2057 53.3203C51.8255 53.3385 52.2448 53.776 52.263 54.487C52.2813 55.2891 52.263 56.0911 52.263 56.875Z" fill="black"/>
</svg>
