<svg width="30" height="30" viewBox="0 0 30 30" fill="none" xmlns="http://www.w3.org/2000/svg">
<rect width="30" height="30" rx="10" fill="black"/>
<path d="M22.2361 11.1127C22.2361 13.7031 22.2361 16.2969 22.2361 18.8873C22.1944 19.0195 22.1701 19.1586 22.111 19.2803C21.8606 19.7775 21.4434 20 20.894 20C17.0414 20 13.1889 20 9.33976 20C9.30847 20 9.2737 20 9.2424 20C8.82863 19.9826 8.47745 19.8296 8.24797 19.4819C8.12975 19.3081 8.07759 19.089 7.99762 18.8908C7.99414 16.2935 7.99414 13.7031 7.99414 11.1127C8.03587 10.9805 8.0602 10.8414 8.12279 10.7197C8.36966 10.2191 8.79039 10 9.33628 10C13.1889 10 17.0414 10 20.894 10C20.9253 10 20.9601 10 20.9914 10C21.3912 10.0174 21.725 10.1739 21.9754 10.4903C22.1179 10.6745 22.184 10.8901 22.2361 11.1127ZM9.43712 10.8414C9.47536 10.8797 9.49623 10.9075 9.52057 10.9318C11.0748 12.4757 12.6291 14.0195 14.1833 15.5598C14.7431 16.1127 15.4872 16.1092 16.047 15.5529C17.5978 14.0125 19.1485 12.4722 20.6993 10.9318C20.7271 10.904 20.748 10.8762 20.7793 10.838C16.9962 10.8414 13.2271 10.8414 9.43712 10.8414ZM20.7028 19.1551C19.5588 17.9903 18.3836 16.7942 17.1944 15.5841C16.9928 15.7893 16.805 15.9875 16.6103 16.1787C15.9288 16.8394 15.0074 16.9993 14.1798 16.5786C13.9608 16.4673 13.766 16.3004 13.5818 16.137C13.387 15.9666 13.2167 15.7719 13.0185 15.5702C11.8259 16.7837 10.6541 17.9798 9.49275 19.1586C13.2271 19.1551 16.9962 19.1551 20.7028 19.1551ZM12.3439 15.0035C11.1965 13.8421 10.0213 12.6495 8.83559 11.4465C8.83559 13.8178 8.83559 16.1787 8.83559 18.5709C10.0317 17.3574 11.2035 16.1648 12.3439 15.0035ZM21.3912 18.5779C21.3912 16.1752 21.3912 13.8143 21.3912 11.4221C20.1916 12.6391 19.0129 13.8352 17.869 14.9965C19.0199 16.1683 20.1951 17.3609 21.3912 18.5779Z" fill="white"/>
</svg>
