<svg width="30" height="30" viewBox="0 0 30 30" fill="none" xmlns="http://www.w3.org/2000/svg">
<rect width="30" height="30" rx="10" fill="black"/>
<path d="M14.993 6.25C11.5418 6.25 8.75 9.19879 8.75 12.844C8.75 14.7407 9.64787 16.4596 10.5317 18.0452C11.612 20.0161 12.9026 21.8534 14.4038 23.4834C14.7264 23.8389 15.2597 23.8389 15.5962 23.4834C16.915 22.1053 18.0794 20.5494 19.0614 18.8898C20.1136 17.0967 21.25 15.0221 21.25 12.844C21.236 9.21361 18.4442 6.25 14.993 6.25ZM14.993 16.6671C12.9026 16.6671 11.2051 14.8741 11.2051 12.6662C11.2051 10.4583 12.9026 8.66534 14.993 8.66534C17.0833 8.66534 18.7809 10.4435 18.7809 12.6662C18.7809 14.8889 17.0833 16.6671 14.993 16.6671Z" fill="white"/>
</svg>
