<svg width="32" height="28" viewBox="0 0 32 28" fill="none" xmlns="http://www.w3.org/2000/svg">
<mask id="mask0_6_3948" style="mask-type:alpha" maskUnits="userSpaceOnUse" x="0" y="0" width="32" height="28">
<rect width="32" height="28" fill="#D9D9D9"/>
</mask>
<g mask="url(#mask0_6_3948)">
<path fill-rule="evenodd" clip-rule="evenodd" d="M1077.75 79.0746H1333.04C1347.56 79.0746 1359.44 67.193 1359.44 52.6711C1359.44 38.1482 1347.56 26.2675 1333.04 26.2675H1077.75C1066.17 26.2675 1056.28 33.8193 1052.74 44.2386C1050.71 47.5585 1047.16 49.8589 1043.08 50.1493L533.237 50.1493C529.183 49.8609 525.656 47.5925 523.621 44.3114C520.104 33.8533 510.189 26.2665 498.586 26.2665H32.0253H30.5504C23.7628 26.2665 18.2092 20.7122 18.2092 13.9237C18.2092 7.13512 23.7628 1.58077 30.5504 1.58077H32.0253H33.3418C46.15 1.58077 56.629 -8.89966 56.629 -21.7096C56.629 -34.5196 46.15 -45 33.3418 -45H-57.7128C-70.521 -45 -81 -34.5196 -81 -21.7096C-81 -8.89966 -70.521 1.58077 -57.7128 1.58077H-3.64976H0.88826C7.67587 1.58077 13.2295 7.13512 13.2295 13.9237C13.2295 20.7122 7.67587 26.2665 0.88826 26.2665H-3.64976H-16.3987C-30.9196 26.2665 -42.7987 38.1482 -42.7987 52.6701C-42.7987 67.193 -30.9196 79.0736 -16.3987 79.0736H498.586C510.189 79.0736 520.105 71.4859 523.622 61.0278C525.657 57.7477 529.185 55.4803 533.238 55.1919L1043.08 55.1919C1047.16 55.4822 1050.71 57.7826 1052.74 61.1016C1056.28 71.5228 1066.17 79.0746 1077.75 79.0746Z" fill="white" stroke="black" stroke-width="0.76" stroke-miterlimit="22.9256"/>
</g>
</svg>
