<svg width="14" height="19" viewBox="0 0 14 19" fill="none" xmlns="http://www.w3.org/2000/svg">
<mask id="mask0_6_3953" style="mask-type:alpha" maskUnits="userSpaceOnUse" x="0" y="0" width="14" height="19">
<rect width="14" height="19" fill="#D9D9D9"/>
</mask>
<g mask="url(#mask0_6_3953)">
<path fill-rule="evenodd" clip-rule="evenodd" d="M37.7511 36.0746H293.037C307.558 36.0746 319.438 24.193 319.438 9.67106C319.438 -4.85181 307.558 -16.7325 293.037 -16.7325H37.7511C26.175 -16.7325 16.2776 -9.1807 12.7396 1.23856C10.7114 4.55854 7.16176 6.85893 3.07812 7.14927L-506.763 7.14926C-510.817 6.86086 -514.344 4.59251 -516.379 1.31137C-519.896 -9.14673 -529.811 -16.7335 -541.414 -16.7335H-1007.97H-1009.45C-1016.24 -16.7335 -1021.79 -22.2878 -1021.79 -29.0763C-1021.79 -35.8649 -1016.24 -41.4192 -1009.45 -41.4192H-1007.97H-1006.66C-993.85 -41.4192 -983.371 -51.8997 -983.371 -64.7096C-983.371 -77.5196 -993.85 -88 -1006.66 -88H-1097.71C-1110.52 -88 -1121 -77.5196 -1121 -64.7096C-1121 -51.8997 -1110.52 -41.4192 -1097.71 -41.4192H-1043.65H-1039.11C-1032.32 -41.4192 -1026.77 -35.8649 -1026.77 -29.0763C-1026.77 -22.2878 -1032.32 -16.7335 -1039.11 -16.7335H-1043.65H-1056.4C-1070.92 -16.7335 -1082.8 -4.85181 -1082.8 9.67009C-1082.8 24.193 -1070.92 36.0736 -1056.4 36.0736H-541.414C-529.811 36.0736 -519.895 28.4859 -516.378 18.0278C-514.343 14.7477 -510.815 12.4803 -506.762 12.1919L3.0791 12.1919C7.16177 12.4822 10.7114 14.7826 12.7396 18.1016C16.2776 28.5228 26.174 36.0746 37.7511 36.0746Z" fill="white" stroke="black" stroke-width="0.75609" stroke-miterlimit="22.9256"/>
</g>
</svg>
