<svg width="14" height="19" viewBox="0 0 14 19" fill="none" xmlns="http://www.w3.org/2000/svg">
<mask id="mask0_6_3953" style="mask-type:alpha" maskUnits="userSpaceOnUse" x="0" y="0" width="14" height="19">
<rect width="14" height="19" fill="#D9D9D9"/>
</mask>
<g mask="url(#mask0_6_3953)">
<path fill-rule="evenodd" clip-rule="evenodd" d="M555.751 36.0746H811.037C825.558 36.0746 837.438 24.193 837.438 9.67106C837.438 -4.85181 825.558 -16.7325 811.037 -16.7325H555.751C544.175 -16.7325 534.278 -9.1807 530.74 1.23856C528.711 4.55854 525.162 6.85893 521.078 7.14927L11.2367 7.14926C7.18316 6.86086 3.65587 4.59251 1.62085 1.31137C-1.89578 -9.14673 -11.8107 -16.7335 -23.414 -16.7335H-489.975H-491.45C-498.237 -16.7335 -503.791 -22.2878 -503.791 -29.0763C-503.791 -35.8649 -498.237 -41.4192 -491.45 -41.4192H-489.975H-488.658C-475.85 -41.4192 -465.371 -51.8997 -465.371 -64.7096C-465.371 -77.5196 -475.85 -88 -488.658 -88H-579.713C-592.521 -88 -603 -77.5196 -603 -64.7096C-603 -51.8997 -592.521 -41.4192 -579.713 -41.4192H-525.65H-521.112C-514.324 -41.4192 -508.771 -35.8649 -508.771 -29.0763C-508.771 -22.2878 -514.324 -16.7335 -521.112 -16.7335H-525.65H-538.399C-552.92 -16.7335 -564.799 -4.85181 -564.799 9.67009C-564.799 24.193 -552.92 36.0736 -538.399 36.0736H-23.414C-11.8107 36.0736 -1.8948 28.4859 1.62183 18.0278C3.65685 14.7477 7.18516 12.4803 11.2377 12.1919L521.079 12.1919C525.162 12.4822 528.711 14.7826 530.74 18.1016C534.278 28.5228 544.174 36.0746 555.751 36.0746Z" fill="white" stroke="black" stroke-width="0.75609" stroke-miterlimit="22.9256"/>
</g>
</svg>
