<svg width="17" height="16" viewBox="0 0 17 16" fill="none" xmlns="http://www.w3.org/2000/svg">
<mask id="mask0_9_4252" style="mask-type:alpha" maskUnits="userSpaceOnUse" x="0" y="0" width="17" height="16">
<rect width="17" height="16" fill="#D9D9D9"/>
</mask>
<g mask="url(#mask0_9_4252)">
<path fill-rule="evenodd" clip-rule="evenodd" d="M-34.709 46.2634H89.449C93.1812 46.5537 96.1451 49.7115 96.1451 53.5301C96.1451 57.5384 92.8789 60.818 88.887 60.818H88.0197H-36.473C-45.0129 60.818 -52 67.834 -52 76.409C-52 84.9841 -45.0139 92 -36.473 92H155.5C164.04 92 171.027 84.9841 171.027 76.409C171.027 67.834 164.041 60.818 155.5 60.818H109.001H106.333C102.341 60.818 99.0746 57.5384 99.0746 53.5301C99.0746 49.7115 102.038 46.5547 105.771 46.2634H202.562C211.102 46.2634 218.089 39.2475 218.089 30.6724C218.089 22.0974 211.103 15.0814 202.562 15.0814H18.0696H17.2023C13.2104 15.0814 9.94424 11.8019 9.94424 7.79347C9.94424 3.78508 13.2104 0.505495 17.2023 0.505495H18.0696H18.844C26.377 0.505495 32.5403 -5.68319 32.5403 -13.2473C32.5403 -20.8113 26.377 -27 18.844 -27H-34.709C-42.242 -27 -48.4053 -20.8113 -48.4053 -13.2473C-48.4053 -5.68319 -42.242 0.505495 -34.709 0.505495H-2.91203H-0.243328C3.74861 0.505495 7.01474 3.78508 7.01474 7.79347C7.01474 11.8019 3.74861 15.0814 -0.243328 15.0814H-2.91203H-34.709C-43.2489 15.0814 -50.236 22.0974 -50.236 30.6724C-50.236 39.2475 -43.2499 46.2634 -34.709 46.2634Z" fill="white" stroke="#2B2A29" stroke-width="0.756226" stroke-miterlimit="22.9256"/>
</g>
</svg>
