<svg width="14" height="19" viewBox="0 0 14 19" fill="none" xmlns="http://www.w3.org/2000/svg">
<mask id="mask0_6_3953" style="mask-type:alpha" maskUnits="userSpaceOnUse" x="0" y="0" width="14" height="19">
<rect width="14" height="19" fill="#D9D9D9"/>
</mask>
<g mask="url(#mask0_6_3953)">
<path fill-rule="evenodd" clip-rule="evenodd" d="M541.751 36.0746H797.037C811.558 36.0746 823.438 24.193 823.438 9.67106C823.438 -4.85181 811.558 -16.7325 797.037 -16.7325H541.751C530.175 -16.7325 520.278 -9.1807 516.74 1.23856C514.711 4.55854 511.162 6.85893 507.078 7.14927L-2.76331 7.14926C-6.81684 6.86086 -10.3441 4.59251 -12.3792 1.31137C-15.8958 -9.14673 -25.8107 -16.7335 -37.414 -16.7335H-503.975H-505.45C-512.237 -16.7335 -517.791 -22.2878 -517.791 -29.0763C-517.791 -35.8649 -512.237 -41.4192 -505.45 -41.4192H-503.975H-502.658C-489.85 -41.4192 -479.371 -51.8997 -479.371 -64.7096C-479.371 -77.5196 -489.85 -88 -502.658 -88H-593.713C-606.521 -88 -617 -77.5196 -617 -64.7096C-617 -51.8997 -606.521 -41.4192 -593.713 -41.4192H-539.65H-535.112C-528.324 -41.4192 -522.771 -35.8649 -522.771 -29.0763C-522.771 -22.2878 -528.324 -16.7335 -535.112 -16.7335H-539.65H-552.399C-566.92 -16.7335 -578.799 -4.85181 -578.799 9.67009C-578.799 24.193 -566.92 36.0736 -552.399 36.0736H-37.414C-25.8107 36.0736 -15.8948 28.4859 -12.3782 18.0278C-10.3432 14.7477 -6.81484 12.4803 -2.76227 12.1919L507.079 12.1919C511.162 12.4822 514.711 14.7826 516.74 18.1016C520.278 28.5228 530.174 36.0746 541.751 36.0746Z" fill="white" stroke="black" stroke-width="0.75609" stroke-miterlimit="22.9256"/>
</g>
</svg>
