<svg width="1414" height="603" viewBox="0 0 1414 603" fill="none" xmlns="http://www.w3.org/2000/svg">
<g clip-path="url(#clip0_9_4205)">
<path d="M1421.7 39.437L38 411.984" stroke="#FEFEFE" stroke-width="0.755638" stroke-miterlimit="22.9256"/>
<path d="M1401.69 23.7008C956.562 163.949 511.432 304.198 66.3018 444.446" stroke="#F6F6F6" stroke-width="0.755638" stroke-miterlimit="22.9256"/>
<path d="M1381.69 7.96631C952.659 164.279 523.63 320.595 94.6035 476.91" stroke="#EDEDED" stroke-width="0.755638" stroke-miterlimit="22.9256"/>
<path d="M1361.68 -7.76978C948.756 164.612 535.83 336.992 122.904 509.372" stroke="#E4E5E5" stroke-width="0.755638" stroke-miterlimit="22.9256"/>
<path d="M1341.67 -23.5043C944.851 164.942 548.029 353.389 151.206 541.833" stroke="#DBDBDB" stroke-width="0.755638" stroke-miterlimit="22.9256"/>
<path d="M1321.67 -39.2386C940.948 165.274 560.228 369.786 179.507 574.299" stroke="#D2D2D3" stroke-width="0.755638" stroke-miterlimit="22.9256"/>
<path d="M1301.66 -54.9749C937.045 165.603 572.427 386.181 207.809 606.76" stroke="#C8C9C9" stroke-width="0.755638" stroke-miterlimit="22.9256"/>
<path d="M1281.65 -70.7092C933.14 165.935 584.623 402.578 236.107 639.222" stroke="#BFC0C0" stroke-width="0.755638" stroke-miterlimit="22.9256"/>
<path d="M1261.65 -86.4437C929.236 166.266 596.823 418.977 264.409 671.686" stroke="#B6B7B7" stroke-width="0.755638" stroke-miterlimit="22.9256"/>
<path d="M1241.64 -102.18C925.332 166.598 609.021 435.372 292.71 704.148" stroke="#ADADAE" stroke-width="0.755638" stroke-miterlimit="22.9256"/>
<path d="M1221.64 -117.914C921.428 166.926 621.22 451.769 321.012 736.611" stroke="#A3A3A4" stroke-width="0.755638" stroke-miterlimit="22.9256"/>
<path d="M1201.63 -133.651C917.524 167.259 633.418 468.166 349.312 769.073" stroke="#989999" stroke-width="0.755638" stroke-miterlimit="22.9256"/>
<path d="M1181.62 -149.385C913.62 167.589 645.618 484.563 377.614 801.537" stroke="#8E8F8E" stroke-width="0.755638" stroke-miterlimit="22.9256"/>
<path d="M1161.62 -165.119C909.716 167.921 657.816 500.96 405.915 834" stroke="#848584" stroke-width="0.755638" stroke-miterlimit="22.9256"/>
<path d="M1141.61 -180.856C905.812 168.252 670.014 517.357 434.215 866.462" stroke="#7A7A79" stroke-width="0.755638" stroke-miterlimit="22.9256"/>
<path d="M1121.6 -196.59C901.908 168.582 682.212 533.754 462.516 898.926" stroke="#6F6F6E" stroke-width="0.755638" stroke-miterlimit="22.9256"/>
<path d="M1101.6 -212.324C898.006 168.912 694.411 550.151 490.819 931.388" stroke="#646464" stroke-width="0.755638" stroke-miterlimit="22.9256"/>
<path d="M1081.59 -228.061C894.101 169.245 706.61 566.548 519.118 963.851" stroke="#5A5959" stroke-width="0.755638" stroke-miterlimit="22.9256"/>
<path d="M1061.59 -243.795C890.198 169.575 718.809 582.943 547.422 996.313" stroke="#4D4D4C" stroke-width="0.755638" stroke-miterlimit="22.9256"/>
<path d="M1041.58 -259.531C886.291 169.905 731.005 599.34 575.721 1028.77" stroke="#424241" stroke-width="0.755638" stroke-miterlimit="22.9256"/>
<path d="M1021.57 -275.266C882.39 170.236 743.205 615.737 604.022 1061.24" stroke="#363635" stroke-width="0.755638" stroke-miterlimit="22.9256"/>
<path d="M1001.56 -291L632.323 1093.7" stroke="#2B2A29" stroke-width="0.755638" stroke-miterlimit="22.9256"/>
</g>
<defs>
<clipPath id="clip0_9_4205">
<rect width="1414" height="603" fill="white"/>
</clipPath>
</defs>
</svg>
