<svg width="30" height="30" viewBox="0 0 30 30" fill="none" xmlns="http://www.w3.org/2000/svg">
<rect width="30" height="30" rx="10" fill="black"/>
<path d="M20.9996 17.9843V19.7908C21.0003 19.9585 20.9659 20.1245 20.8986 20.2781C20.8313 20.4318 20.7325 20.5697 20.6087 20.6831C20.4849 20.7965 20.3387 20.8828 20.1795 20.9365C20.0203 20.9903 19.8517 21.0102 19.6843 20.9951C17.8277 20.7938 16.0443 20.1606 14.4773 19.1465C13.0195 18.222 11.7836 16.9884 10.8572 15.5335C9.83752 13.9626 9.20294 12.174 9.0049 10.3128C8.98982 10.1463 9.00965 9.97843 9.06312 9.81998C9.11659 9.66153 9.20254 9.51592 9.31548 9.39244C9.42843 9.26896 9.5659 9.1703 9.71915 9.10274C9.87239 9.03519 10.038 9.00022 10.2056 9.00006H12.0156C12.3085 8.99718 12.5923 9.10067 12.8143 9.29122C13.0364 9.48178 13.1814 9.74641 13.2224 10.0358C13.2988 10.6139 13.4404 11.1815 13.6447 11.7278C13.7259 11.9434 13.7435 12.1776 13.6953 12.4028C13.6472 12.628 13.5354 12.8347 13.3732 12.9984L12.6069 13.7632C13.4658 15.2707 14.7165 16.5189 16.2271 17.3761L16.9933 16.6114C17.1574 16.4495 17.3645 16.3379 17.5901 16.2899C17.8158 16.2419 18.0505 16.2594 18.2664 16.3404C18.8138 16.5443 19.3826 16.6857 19.9619 16.7619C20.2549 16.8032 20.5226 16.9505 20.714 17.1759C20.9053 17.4013 21.007 17.689 20.9996 17.9843Z" fill="white"/>
</svg>
