<svg width="113" height="112" viewBox="0 0 113 112" fill="none" xmlns="http://www.w3.org/2000/svg">
<g clip-path="url(#clip0_102_3554)">
<path d="M43.5219 103.067L41.4479 104.873L41.4264 104.866L36.1171 109.516L34.5778 108.994L41.9826 102.546L43.5219 103.068V103.067ZM41.7557 103.854L43.4393 112L41.8785 111.471L40.4567 104.596L41.7552 103.854H41.7557ZM27.4031 98.5555C28.3535 99.2334 28.9097 99.9913 29.0722 100.829C29.2348 101.668 28.9934 102.542 28.3482 103.452L27.1253 105.177L25.9116 104.311L27.069 102.678C27.4916 102.082 27.6477 101.511 27.5367 100.964C27.4257 100.417 27.0486 99.9144 26.405 99.455C26.0371 99.1925 25.6193 98.9617 25.1516 98.7621C24.6839 98.5625 24.1942 98.4006 23.682 98.2764L24.2988 97.2306C24.8383 97.3285 25.3758 97.492 25.9105 97.7206C26.4452 97.9493 26.943 98.2279 27.4026 98.5555H27.4031ZM26.678 94.4418L21.7731 101.359L20.5594 100.494L25.4643 93.5763L26.678 94.4418ZM12.3893 86.1202L13.3654 85.351L17.019 90.0139L16.0428 90.7832L12.3893 86.1202ZM15.9243 89.6245L19.2657 87.7535L19.0485 88.8315L14.9905 83.6527L16.0021 82.8554L20.5621 88.6755L16.8168 90.7638L13.9082 93.92L9.38305 88.1446L10.3946 87.3473L14.4177 92.4821L13.322 92.439L15.9248 89.6245H15.9243ZM7.75578 77.7664L6.30712 74.0814C6.07542 73.4918 5.97834 72.9523 6.01642 72.4627C6.0545 71.9732 6.20789 71.5514 6.47767 71.1975C6.74692 70.8435 7.11914 70.5724 7.59542 70.3841C8.06418 70.1985 8.51954 70.1484 8.96148 70.2334C9.40289 70.3184 9.80354 70.5288 10.1618 70.8655C10.5206 71.2023 10.8103 71.6515 11.0312 72.2131L12.9186 77.0143L8.51739 78.037L5.04563 80.128L2.33012 73.2212L3.48487 72.7645L5.85659 78.7976L4.94641 78.5497L7.97515 76.719L11.9564 75.8012L11.4748 76.6125L9.9682 72.7801C9.78906 72.3239 9.53215 72.0055 9.19855 71.8252C8.86494 71.645 8.50184 71.6321 8.11031 71.787C7.71824 71.942 7.4624 72.2013 7.3428 72.5649C7.22319 72.9286 7.25269 73.3385 7.43183 73.7952L8.82686 77.3436L7.75632 77.7669L7.75578 77.7664ZM0.211564 63.0889L0.17402 61.5956L8.63431 61.3809L8.67186 62.8743L0.211564 63.0889ZM0.0377882 56.1875L0.000244141 54.6942L8.46054 54.4795L8.49808 55.9729L0.0377882 56.1875ZM3.7332 62.1964L3.56157 55.3854L4.87025 55.3521L5.04188 62.1631L3.7332 62.1964ZM9.27954 47.2871L1.13837 44.968L1.54545 43.5311L9.16529 45.7018L8.34308 46.1617L9.31118 42.743C9.45278 42.2422 9.43668 41.8102 9.26184 41.4466C9.08699 41.0829 8.7861 40.8403 8.35917 40.7187C7.92473 40.595 7.53856 40.6418 7.19906 40.8591C6.86009 41.0765 6.6198 41.4353 6.47767 41.9361L5.46935 45.4963L4.30762 45.1654L5.33419 41.5402C5.50904 40.9231 5.76863 40.4207 6.11296 40.0323C6.45783 39.6439 6.85848 39.3819 7.31544 39.2453C7.77241 39.1086 8.2578 39.1135 8.77162 39.2603C9.27846 39.4045 9.69038 39.6552 10.0074 40.0124C10.3243 40.3696 10.5281 40.8037 10.6177 41.3158C10.7073 41.8274 10.6649 42.3923 10.4901 43.0093L9.27846 47.2882L9.27954 47.2871ZM3.45698 36.7809L3.86407 35.344L12.0052 37.6631L11.5982 39.1L3.45698 36.7809ZM15.44 31.2153L8.7861 25.9708L9.67858 24.8319L15.7827 29.6434L15.3982 29.9876L13.0114 20.5783L14.2107 19.0478L20.8651 24.2923L19.9726 25.4312L13.8154 20.5778L14.2 20.2335L16.6119 29.7203L15.4405 31.2153H15.44ZM8.03575 22.99L8.78878 22.0286C9.06446 22.1405 9.32727 22.1626 9.57613 22.0954C9.825 22.0276 10.0497 21.8667 10.2498 21.6112C10.4541 21.3503 10.5587 21.0915 10.563 20.836C10.5673 20.5799 10.4826 20.3309 10.3088 20.0888L11.0618 19.1275C11.456 19.6014 11.6352 20.1022 11.5992 20.6305C11.5633 21.1588 11.3504 21.672 10.9599 22.1701C10.5694 22.6683 10.1227 22.9975 9.61958 23.1578C9.11649 23.3176 8.58872 23.2616 8.03629 22.9894L8.03575 22.99ZM31.3319 5.89923L35.1174 12.5026L34.5011 12.3358L36.1836 11.3654L37.7079 14.0245L36.5049 14.7184L35.532 13.0206L36.226 12.8684L28.4099 17.3759L24.1915 10.0173L25.483 9.27273L29.2685 15.8761L28.6523 15.7093L34.0034 12.6231L33.8371 13.2412L30.0516 6.63784L31.3329 5.89869L31.3319 5.89923ZM48.5555 4.14497L48.8349 5.35805L43.0735 6.69163L42.7946 5.47855L48.556 4.14497H48.5555ZM43.8904 5.86372L44.158 9.69287L43.2773 9.0371L49.6764 7.55558L49.9655 8.81278L42.7748 10.4772L42.483 6.18918L40.8718 2.20672L48.0073 0.554674L48.2964 1.81187L41.9526 3.28048L42.4573 2.30409L43.8898 5.86372H43.8904ZM57.4845 0.00219727L58.9697 0.115705L58.3282 8.5793L56.8431 8.4658L57.4845 0.00219727ZM64.3481 0.525625L65.8333 0.639132L65.1918 9.10273L63.7067 8.98976L64.3481 0.525625ZM58.015 3.60648L64.7885 4.12291L64.6893 5.43229L57.9158 4.91585L58.015 3.60648ZM77.8801 5.02237L79.2376 5.63778L76.0345 12.7436L74.6771 12.1282L77.8801 5.02237ZM74.9763 2.94802L82.7083 6.45439L82.1693 7.6508L74.4373 4.14443L74.9763 2.94802ZM93.6492 14.0998C94.1271 14.5145 94.4666 14.9594 94.6688 15.4344C94.8704 15.9094 94.9348 16.3823 94.8618 16.8525C94.7889 17.3232 94.5797 17.7584 94.2354 18.157C93.8905 18.5562 93.4909 18.8257 93.0372 18.965C92.5829 19.1043 92.1077 19.1081 91.61 18.9752C91.1128 18.8424 90.6253 18.5685 90.1474 18.1538L87.2731 15.6566L88.1152 14.6813L90.9465 17.1413C91.3332 17.477 91.7173 17.6465 92.0986 17.6481C92.4799 17.6503 92.8109 17.4883 93.0919 17.1634C93.3729 16.8385 93.485 16.4867 93.4287 16.1085C93.3724 15.7298 93.1509 15.3731 92.7642 15.0369L90.0433 12.6731L91.034 12.5456L85.8475 18.5508L84.7217 17.5728L90.2627 11.1566L93.6486 14.0987L93.6492 14.0998ZM98.5326 29.6089L99.5988 28.994L102.546 34.1353L101.48 34.7501L98.5326 29.6089ZM106.144 29.7628L100.832 37.526L100.039 36.1424L105.048 28.9849L105.335 29.4852L96.6479 30.226L95.8546 28.8423L105.216 28.143L106.144 29.7617V29.7628ZM107.636 43.8044L108.241 47.2026C108.328 47.6927 108.508 48.0612 108.782 48.3076C109.055 48.5534 109.384 48.6422 109.769 48.5733C110.162 48.5029 110.442 48.3054 110.609 47.9805C110.776 47.6551 110.816 47.2478 110.729 46.7572L110.087 43.1476L111.026 43.6575L103.139 45.0702L102.877 43.5994L111.208 42.1072L112.019 46.6642C112.124 47.2511 112.11 47.7842 111.978 48.264C111.846 48.7439 111.615 49.1414 111.285 49.4572C110.955 49.773 110.538 49.9758 110.034 50.0662C109.546 50.1539 109.092 50.1065 108.674 49.9247C108.255 49.7429 107.901 49.4497 107.612 49.0457C107.322 48.6417 107.125 48.1462 107.021 47.5593L106.392 44.0271L107.636 43.8044H107.636ZM107.252 45.5748L107.559 47.3016L104.252 51.3201L103.938 49.56L107.252 45.5748ZM112.048 61.0038L111.935 62.4934L104.183 61.9022L104.296 60.4126L112.048 61.0038ZM112.999 57.5577L112.356 66.0439L111.051 65.9444L111.694 57.4582L112.999 57.5577ZM110.102 74.3326L109.624 75.7475L101.607 73.027L102.085 71.6122L110.102 74.3326ZM96.768 89.0134C96.2258 88.5749 95.8423 88.0397 95.617 87.406C95.3917 86.7728 95.3344 86.0971 95.4448 85.3795C95.5548 84.6613 95.8396 83.9437 96.2987 83.2261C96.8104 82.4256 97.4138 81.8236 98.1099 81.4196C98.8061 81.0156 99.5388 80.8236 100.308 80.8435C101.077 80.8634 101.829 81.1092 102.564 81.5815C103.299 82.0539 103.835 82.6365 104.174 83.3294C104.513 84.0222 104.645 84.77 104.57 85.5732C104.494 86.3763 104.201 87.1779 103.689 87.9783C103.23 88.696 102.699 89.2549 102.094 89.6551C101.49 90.0554 100.856 90.2861 100.191 90.3469C99.5264 90.4083 98.8796 90.2808 98.2499 89.9661L99.0598 88.6986C99.4846 88.8729 99.9072 88.9321 100.328 88.8751C100.748 88.8186 101.15 88.654 101.535 88.3807C101.92 88.108 102.266 87.7303 102.574 87.2478C102.932 86.6889 103.137 86.1375 103.19 85.5931C103.242 85.0486 103.147 84.5414 102.903 84.0706C102.659 83.5999 102.274 83.1954 101.748 82.8576C101.222 82.5197 100.695 82.3379 100.167 82.3115C99.6385 82.2852 99.1386 82.41 98.6677 82.6854C98.1968 82.9609 97.7828 83.3778 97.4256 83.9372C97.1172 84.4198 96.9182 84.8921 96.8281 85.3542C96.738 85.8163 96.7567 86.252 96.8844 86.6609C97.0115 87.0697 97.2432 87.4318 97.5784 87.7459L96.7685 89.0134H96.768ZM85.6968 94.6274C86.4541 94.0308 87.2334 93.6516 88.0347 93.4902C88.836 93.3288 89.5998 93.3815 90.326 93.6489C91.0522 93.9162 91.6851 94.394 92.2241 95.0825C92.7631 95.7706 93.0763 96.5 93.1638 97.2709C93.2512 98.0418 93.1214 98.7987 92.7755 99.5416C92.4295 100.285 91.8782 100.954 91.1208 101.551C90.3635 102.148 89.5842 102.527 88.7829 102.689C87.9816 102.85 87.2179 102.797 86.4917 102.53C85.7654 102.263 85.1331 101.785 84.5935 101.096C84.0545 100.408 83.7413 99.6788 83.6539 98.9079C83.5664 98.137 83.6962 97.3801 84.0422 96.6372C84.3881 95.8943 84.9395 95.2245 85.6968 94.628V94.6274ZM86.5195 95.6775C85.9811 96.102 85.5938 96.5657 85.3567 97.0692C85.1197 97.5727 85.0349 98.0902 85.1031 98.6223C85.1706 99.1543 85.3975 99.6664 85.7831 100.159C86.1688 100.651 86.6118 100.994 87.1111 101.186C87.6105 101.377 88.1323 101.417 88.6756 101.306C89.2195 101.194 89.7601 100.926 90.2986 100.501C90.8312 100.082 91.2174 99.6191 91.4571 99.1134C91.6974 98.6077 91.7832 98.0886 91.7156 97.5566C91.6481 97.0245 91.4212 96.5124 91.0356 96.0196C90.6499 95.5274 90.2069 95.1853 89.7076 94.9932C89.2082 94.8017 88.6853 94.763 88.1382 94.877C87.5917 94.9911 87.0521 95.2579 86.5195 95.6775ZM68.7896 104.248L69.3453 103.988L71.7899 111.235L70.4217 111.699L67.7094 103.659L69.5051 103.049L77.5717 108.389L77.0268 108.645L74.5607 101.334L75.9289 100.869L78.6412 108.91L76.8026 109.534L68.7896 104.248Z" fill="#333333"/>
</g>
<defs>
<clipPath id="clip0_102_3554">
<rect width="113" height="112" fill="white"/>
</clipPath>
</defs>
</svg>
